<svg xmlns="http://www.w3.org/2000/svg" viewBox="0 0 60 55" width="73" height="83"><style type="text/css">    
	.st0{display:none;}
	.st1{display:inline;fill:#156BA3;}
	.st2{display:inline;}
	.st3{fill:#156BA3;}
	.st4{display:none;fill:#156BA3;}
	.st5{fill:#FA8503;}
</style><g class="st0"><path class="st1" d="M55.7 53.2h1.8V55h-1.8V53.2z"/><path class="st1" d="M2.5 53.2h1.8V55H2.5V53.2z"/><path class="st1" d="M52.2 16H38v-9c0.4-0.1 0.7-0.3 1-0.6 0.5-0.5 0.8-1.2 0.8-1.9l0-1.8c0-1.5-1.2-2.7-2.7-2.7H12.3c-1.5 0-2.7 1.2-2.7 2.7v1.8c0 1.2 0.7 2.1 1.8 2.5v25.3L7.8 34v19.2H6V55H54v-1.8h-1.8V16zM50.4 53.2h-5.3v-7.1h-5.3v-1.8h8.9v-7.1H32.8l-1.9-0.8V17.7h19.5V53.2zM34.4 53.2h-3.5v-7.1h3.5V53.2zM29.1 44.4v8.9h-3.5v-8.9h-7.1v8.9h-1.8V32.4l21.3 9v11.8h-1.8v-8.9H29.1zM23.8 53.2h-3.5v-7.1h3.5V53.2zM37 39h9.9v3.5h-7.1v-2.4L37 39zM39.8 47.9h3.5v5.3h-3.5V47.9zM11.4 2.7c0-0.5 0.4-0.9 0.9-0.9h24.8c0.5 0 0.9 0.4 0.9 0.9l0 1.8c0 0.2-0.1 0.5-0.3 0.6-0.2 0.2-0.4 0.3-0.6 0.3H12.3c-0.5 0-0.9-0.4-0.9-0.9L11.4 2.7zM13.1 7.1h23.1V16h-7.1v19.7l-13.3-5.6-2.6 1.3V7.1zM9.6 35.1l5.3-2.7v20.7H9.6V35.1z"/><path class="st1" d="M18.1 36.6l0.7-1.6 1.8 0.8-0.7 1.6L18.1 36.6z"/><path class="st1" d="M21.8 38.1l0.7-1.6 9.7 4.1-0.7 1.6L21.8 38.1z"/><path class="st1" d="M20.2 16h-5.3v5.3h5.3V16zM18.5 19.5h-1.8v-1.8h1.8V19.5z"/><path class="st1" d="M20.2 8.9h-5.3v5.3h5.3V8.9zM18.5 12.4h-1.8v-1.8h1.8V12.4z"/><path class="st1" d="M27.3 16H22v5.3h5.3V16zM25.6 19.5h-1.8v-1.8h1.8V19.5z"/><path class="st1" d="M27.3 8.9H22v5.3h5.3V8.9zM25.6 12.4h-1.8v-1.8h1.8V12.4z"/><path class="st1" d="M34.4 8.9h-5.3v5.3h5.3V8.9zM32.7 12.4h-1.8v-1.8h1.8V12.4z"/><path class="st1" d="M20.2 23.1h-5.3v5.3h5.3V23.1zM18.5 26.6h-1.8v-1.8h1.8V26.6z"/><path class="st1" d="M27.3 23.1H22v5.3h5.3V23.1zM25.6 26.6h-1.8v-1.8h1.8V26.6z"/><path class="st1" d="M48.6 19.5h-16v7.1h16V19.5zM46.9 24.8H34.4v-3.5h12.4V24.8z"/><path class="st1" d="M48.6 28.4h-16v7.1h16V28.4zM46.9 33.7H34.4v-3.5h12.4V33.7z"/></g><g class="st0"><g class="st2"><path class="st3" d="M56.6 53.2h-5.5V22.9c0-0.5-0.4-0.9-0.9-0.9H37.3V0.9c0-0.5-0.4-0.9-0.9-0.9H12.6c-0.5 0-0.9 0.4-0.9 0.9v52.3H3.4c-0.5 0-0.9 0.4-0.9 0.9S2.9 55 3.4 55h53.2c0.5 0 0.9-0.4 0.9-0.9S57.1 53.2 56.6 53.2zM21.8 53.2h-3.7v-8.3c0-0.5 0.4-0.9 0.9-0.9h1.8c0.5 0 0.9 0.4 0.9 0.9V53.2zM25.4 22.9v30.3h-1.8v-8.3c0-1.5-1.2-2.8-2.8-2.8H19c-1.5 0-2.8 1.2-2.8 2.8v8.3h-2.8V1.8h22V22h-9.2C25.8 22 25.4 22.4 25.4 22.9zM49.3 53.2h-22V23.8h22V53.2z"/><path class="st3" d="M31.8 12.8h-5.5c-0.5 0-0.9 0.4-0.9 0.9v5.5c0 0.5 0.4 0.9 0.9 0.9h5.5c0.5 0 0.9-0.4 0.9-0.9v-5.5C32.8 13.2 32.3 12.8 31.8 12.8zM30.9 18.3h-3.7v-3.7h3.7V18.3z"/><path class="st3" d="M31.8 3.7h-5.5c-0.5 0-0.9 0.4-0.9 0.9v5.5c0 0.5 0.4 0.9 0.9 0.9h5.5c0.5 0 0.9-0.4 0.9-0.9V4.6C32.8 4.1 32.3 3.7 31.8 3.7zM30.9 9.2h-3.7V5.5h3.7V9.2z"/><path class="st3" d="M22.7 12.8h-5.5c-0.5 0-0.9 0.4-0.9 0.9v5.5c0 0.5 0.4 0.9 0.9 0.9h5.5c0.5 0 0.9-0.4 0.9-0.9v-5.5C23.6 13.2 23.2 12.8 22.7 12.8zM21.8 18.3h-3.7v-3.7h3.7V18.3z"/><path class="st3" d="M22.7 3.7h-5.5c-0.5 0-0.9 0.4-0.9 0.9v5.5c0 0.5 0.4 0.9 0.9 0.9h5.5c0.5 0 0.9-0.4 0.9-0.9V4.6C23.6 4.1 23.2 3.7 22.7 3.7zM21.8 9.2h-3.7V5.5h3.7V9.2z"/><path class="st3" d="M22.7 22h-5.5c-0.5 0-0.9 0.4-0.9 0.9v5.5c0 0.5 0.4 0.9 0.9 0.9h5.5c0.5 0 0.9-0.4 0.9-0.9v-5.5C23.6 22.4 23.2 22 22.7 22zM21.8 27.5h-3.7v-3.7h3.7V27.5z"/><path class="st3" d="M22.7 31.2h-5.5c-0.5 0-0.9 0.4-0.9 0.9v5.5c0 0.5 0.4 0.9 0.9 0.9h5.5c0.5 0 0.9-0.4 0.9-0.9v-5.5C23.6 31.6 23.2 31.2 22.7 31.2zM21.8 36.7h-3.7V33h3.7V36.7z"/><path class="st3" d="M40.1 42.2h5.5c0.5 0 0.9-0.4 0.9-0.9v-5.5c0-0.5-0.4-0.9-0.9-0.9h-5.5c-0.5 0-0.9 0.4-0.9 0.9v5.5C39.2 41.8 39.6 42.2 40.1 42.2zM41 36.7h3.7v3.7H41V36.7z"/><path class="st3" d="M40.1 33h5.5c0.5 0 0.9-0.4 0.9-0.9v-5.5c0-0.5-0.4-0.9-0.9-0.9h-5.5c-0.5 0-0.9 0.4-0.9 0.9v5.5C39.2 32.6 39.6 33 40.1 33zM41 27.5h3.7v3.7H41V27.5z"/><path class="st3" d="M40.1 51.3h5.5c0.5 0 0.9-0.4 0.9-0.9v-5.5c0-0.5-0.4-0.9-0.9-0.9h-5.5c-0.5 0-0.9 0.4-0.9 0.9v5.5C39.2 50.9 39.6 51.3 40.1 51.3zM41 45.8h3.7v3.7H41V45.8z"/><path class="st3" d="M30.9 42.2h5.5c0.5 0 0.9-0.4 0.9-0.9v-5.5c0-0.5-0.4-0.9-0.9-0.9h-5.5c-0.5 0-0.9 0.4-0.9 0.9v5.5C30 41.8 30.4 42.2 30.9 42.2zM31.8 36.7h3.7v3.7h-3.7V36.7z"/><path class="st3" d="M30.9 33h5.5c0.5 0 0.9-0.4 0.9-0.9v-5.5c0-0.5-0.4-0.9-0.9-0.9h-5.5c-0.5 0-0.9 0.4-0.9 0.9v5.5C30 32.6 30.4 33 30.9 33zM31.8 27.5h3.7v3.7h-3.7V27.5z"/><path class="st3" d="M30.9 51.3h5.5c0.5 0 0.9-0.4 0.9-0.9v-5.5c0-0.5-0.4-0.9-0.9-0.9h-5.5c-0.5 0-0.9 0.4-0.9 0.9v5.5C30 50.9 30.4 51.3 30.9 51.3zM31.8 45.8h3.7v3.7h-3.7V45.8z"/></g></g><g class="st0"><path class="st1" d="M40.6 0H19.4c-2.4 0-4.4 2-4.4 4.4v46.1c0 2.4 2 4.4 4.4 4.4h21.3c2.4 0 4.4-2 4.4-4.4V4.4C45.1 2 43.1 0 40.6 0zM34.2 1.8l-0.4 1.8h-7.5l-0.4-1.8H34.2zM43.3 50.6c0 1.5-1.2 2.7-2.7 2.7H19.4c-1.5 0-2.7-1.2-2.7-2.7V4.4c0-1.5 1.2-2.7 2.7-2.7H24l0.7 2.9c0.1 0.4 0.5 0.7 0.9 0.7h8.9c0.4 0 0.8-0.3 0.9-0.7L36 1.8h4.6c1.5 0 2.7 1.2 2.7 2.7V50.6z"/><path class="st1" d="M25.7 50.6h-6.2c-0.5 0-0.9 0.4-0.9 0.9s0.4 0.9 0.9 0.9h6.2c0.5 0 0.9-0.4 0.9-0.9S26.2 50.6 25.7 50.6z"/><path class="st1" d="M29.1 50.6h-0.9c-0.5 0-0.9 0.4-0.9 0.9s0.4 0.9 0.9 0.9h0.9c0.5 0 0.9-0.4 0.9-0.9S29.6 50.6 29.1 50.6z"/><path class="st1" d="M24.7 16.9h10.6c0.5 0 0.9-0.4 0.9-0.9v-3.5c0-0.5-0.4-0.9-0.9-0.9H24.7c-0.5 0-0.9 0.4-0.9 0.9V16C23.8 16.5 24.2 16.9 24.7 16.9zM25.6 13.3h8.9v1.8h-8.9V13.3z"/><path class="st1" d="M35.3 38.1H24.7c-0.5 0-0.9 0.4-0.9 0.9s0.4 0.9 0.9 0.9h10.6c0.5 0 0.9-0.4 0.9-0.9S35.8 38.1 35.3 38.1z"/><path class="st1" d="M32.7 41.7h-5.3c-0.5 0-0.9 0.4-0.9 0.9s0.4 0.9 0.9 0.9h5.3c0.5 0 0.9-0.4 0.9-0.9S33.2 41.7 32.7 41.7z"/><path class="st1" d="M37.1 18.6H22.9c-1 0-1.8 0.8-1.8 1.8v14.2c0 1 0.8 1.8 1.8 1.8h14.2c1 0 1.8-0.8 1.8-1.8V20.4C38.9 19.4 38.1 18.6 37.1 18.6zM28.2 20.4h3.5V25l-1.3-0.9c-0.3-0.2-0.7-0.2-1 0L28.2 25V20.4zM37.1 34.6H22.9V20.4h3.5v6.2c0 0.5 0.4 0.9 0.9 0.9 0.2 0 0.3-0.1 0.5-0.1l2.2-1.4 2.2 1.4c0.1 0.1 0.3 0.1 0.5 0.1 0.5 0 0.9-0.4 0.9-0.9v-6.2h3.5V34.6L37.1 34.6z"/><path class="st1" d="M27.3 29.3h-2.7c-0.5 0-0.9 0.4-0.9 0.9v2.7c0 0.5 0.4 0.9 0.9 0.9h2.7c0.5 0 0.9-0.4 0.9-0.9v-2.7C28.2 29.7 27.8 29.3 27.3 29.3zM26.5 31.9h-0.9V31h0.9V31.9z"/><path class="st1" d="M32.7 29.3H30c-0.5 0-0.9 0.4-0.9 0.9 0 0.5 0.4 0.9 0.9 0.9h2.7c0.5 0 0.9-0.4 0.9-0.9C33.5 29.7 33.2 29.3 32.7 29.3z"/><path class="st1" d="M30.9 31.9H30c-0.5 0-0.9 0.4-0.9 0.9 0 0.5 0.4 0.9 0.9 0.9h0.9c0.5 0 0.9-0.4 0.9-0.9C31.8 32.3 31.4 31.9 30.9 31.9z"/></g><g class="st0"><path class="st1" d="M54.6 9.5h-9.5V3.8c0-1.6-1.3-2.8-2.8-2.8H17.7c-1.6 0-2.8 1.3-2.8 2.8v5.7H5.4c-2.6 0-4.7 2.1-4.7 4.7v26.5c0 2.6 2.1 4.7 4.7 4.7h18.5l-1.3 3.8h-3.9c-0.5 0-0.9 0.4-0.9 0.9v2.8c0 0.5 0.4 0.9 0.9 0.9h22.7c0.5 0 0.9-0.4 0.9-0.9v-2.8c0-0.5-0.4-0.9-0.9-0.9h-4.1L36 45.5h18.7c2.6 0 4.7-2.1 4.7-4.7V14.3C59.3 11.6 57.2 9.5 54.6 9.5zM16.8 3.8c0-0.5 0.4-0.9 0.9-0.9h24.6c0.5 0 0.9 0.4 0.9 0.9v2.8H16.8V3.8zM16.8 8.6h26.5v29.3H16.8V8.6zM2.6 14.3c0-1.6 1.3-2.8 2.8-2.8h9.5v26.5H2.6V14.3zM40.4 51.2v0.9H19.6v-0.9H40.4zM24.6 49.3l1.3-3.8h8l1.3 3.8H24.6zM57.4 40.8c0 1.6-1.3 2.8-2.8 2.8H5.4c-1.6 0-2.8-1.3-2.8-2.8v-0.9h54.9V40.8zM57.4 37.9H45.1V11.4h9.5c1.6 0 2.8 1.3 2.8 2.8V37.9z"/><path class="st1" d="M12 40.8H5.4c-0.5 0-0.9 0.4-0.9 0.9s0.4 0.9 0.9 0.9H12c0.5 0 0.9-0.4 0.9-0.9S12.5 40.8 12 40.8z"/><path class="st1" d="M15.8 40.8h-0.9c-0.5 0-0.9 0.4-0.9 0.9s0.4 0.9 0.9 0.9h0.9c0.5 0 0.9-0.4 0.9-0.9S16.3 40.8 15.8 40.8z"/><circle class="st1" cx="18.5" cy="4.8" r="0.9"/><circle class="st1" cx="21.5" cy="4.8" r="0.9"/><circle class="st1" cx="24.3" cy="4.8" r="0.9"/><path class="st1" d="M36.6 17.1h-1.9v-0.9c0-1.6-1.3-2.8-2.8-2.8-0.7 0-1.4 0.3-1.9 0.7-1.2-1-3-0.9-4 0.2-0.5 0.5-0.7 1.2-0.7 1.9v0.9h-1.9c-0.5 0-0.9 0.4-0.9 0.9v11.4c0 0.5 0.4 0.9 0.9 0.9h13.3c0.5 0 0.9-0.4 0.9-0.9V18C37.6 17.5 37.1 17.1 36.6 17.1zM27.2 16.1c0-0.5 0.4-0.9 0.9-0.9s0.9 0.4 0.9 0.9v0.9h-1.9V16.1zM31.9 28.4h-7.6V19h0.9v0.9c0 0.5 0.4 0.9 0.9 0.9 0.5 0 0.9-0.4 0.9-0.9V19h1.9v0.9c0 0.5 0.4 0.9 0.9 0.9s0.9-0.4 0.9-0.9V19h0.9V28.4zM32.8 17.1h-1.9v-0.9c0-0.5 0.4-0.9 0.9-0.9s0.9 0.4 0.9 0.9V17.1zM35.7 28.4h-1.9V19h1.9V28.4z"/><path class="st1" d="M24.3 35.1h-5.7c-0.5 0-0.9 0.4-0.9 0.9s0.4 0.9 0.9 0.9h5.7c0.5 0 0.9-0.4 0.9-0.9S24.8 35.1 24.3 35.1z"/><path class="st1" d="M28.1 35.1h-0.9c-0.5 0-0.9 0.4-0.9 0.9s0.4 0.9 0.9 0.9h0.9c0.5 0 0.9-0.4 0.9-0.9S28.6 35.1 28.1 35.1z"/></g><g class="st0"><path class="st1" d="M23.7 39.5c-0.2 0-0.5-0.1-0.6-0.2l-6.4-5.5c-0.2-0.2-0.3-0.5-0.3-0.8 0-0.3 0.1-0.6 0.3-0.8l6.4-5.5c0.4-0.4 1-0.3 1.4 0.1 0.4 0.4 0.3 1-0.1 1.4l-5.5 4.7 5.5 4.7c0.4 0.4 0.5 1 0.1 1.4C24.2 39.4 24 39.5 23.7 39.5z"/><path class="st1" d="M36.3 39.5c-0.3 0-0.6-0.1-0.8-0.3-0.4-0.4-0.3-1 0.1-1.4l5.5-4.7-5.5-4.7c-0.4-0.4-0.5-1-0.1-1.4 0.4-0.4 1-0.5 1.4-0.1l6.4 5.5c0.2 0.2 0.3 0.5 0.3 0.8 0 0.3-0.1 0.6-0.3 0.8L37 39.3C36.8 39.5 36.6 39.5 36.3 39.5z"/><path class="st1" d="M27.7 43.6c-0.1 0-0.1 0-0.2 0-0.5-0.1-0.9-0.6-0.8-1.2l4-19c0.1-0.5 0.6-0.9 1.2-0.8 0.5 0.1 0.9 0.6 0.8 1.2l-4 19C28.6 43.3 28.2 43.6 27.7 43.6z"/><path class="st1" d="M53.3 54H6.7C3 54 0 51 0 47.3V7.7C0 4 3 1 6.7 1h46.7C57 1 60 4 60 7.7v39.6C60 51 57 54 53.3 54zM6.7 3C4.1 3 2 5.1 2 7.7v39.6C2 49.9 4.1 52 6.7 52h46.7c2.6 0 4.7-2.1 4.7-4.7V7.7C58 5.1 55.9 3 53.3 3H6.7z"/><path class="st1" d="M59 16.9H1c-0.5 0-1-0.4-1-1 0-0.5 0.4-1 1-1h58c0.5 0 1 0.4 1 1C60 16.5 59.6 16.9 59 16.9z"/><path class="st1" d="M16.9 12.2c-1.7 0-3.1-1.4-3.1-3.1 0-1.7 1.4-3.1 3.1-3.1 1.7 0 3.1 1.4 3.1 3.1C20.1 10.7 18.7 12.2 16.9 12.2zM16.9 7.9c-0.6 0-1.2 0.5-1.2 1.2 0 0.6 0.5 1.2 1.2 1.2 0.6 0 1.2-0.5 1.2-1.2C18.1 8.4 17.6 7.9 16.9 7.9z"/><path class="st1" d="M7.3 12.1c-1.7 0-3.1-1.4-3.1-3.1s1.4-3.1 3.1-3.1 3.1 1.4 3.1 3.1S9 12.1 7.3 12.1zM7.3 7.8C6.7 7.8 6.1 8.4 6.1 9c0 0.6 0.5 1.2 1.2 1.2 0.6 0 1.2-0.5 1.2-1.2C8.4 8.4 7.9 7.8 7.3 7.8z"/><path class="st1" d="M26.6 12.2c-1.7 0-3.1-1.4-3.1-3.1 0-1.7 1.4-3.1 3.1-3.1 1.7 0 3.1 1.4 3.1 3.1C29.7 10.8 28.3 12.2 26.6 12.2zM26.6 7.9c-0.6 0-1.2 0.5-1.2 1.2 0 0.6 0.5 1.2 1.2 1.2 0.6 0 1.2-0.5 1.2-1.2C27.7 8.4 27.2 7.9 26.6 7.9z"/></g><g class="st0"><path class="st1" d="M53.3 54H6.7C3 54 0 51 0 47.3V7.7C0 4 3 1 6.7 1h46.7C57 1 60 4 60 7.7v39.6C60 51 57 54 53.3 54zM6.7 3C4.1 3 2 5.1 2 7.7v39.6C2 49.9 4.1 52 6.7 52h46.7c2.6 0 4.7-2.1 4.7-4.7V7.7C58 5.1 55.9 3 53.3 3H6.7z"/><path class="st1" d="M59 16.9H1c-0.5 0-1-0.4-1-1 0-0.5 0.4-1 1-1h58c0.5 0 1 0.4 1 1C60 16.5 59.6 16.9 59 16.9z"/><path class="st1" d="M16.9 12.2c-1.7 0-3.1-1.4-3.1-3.1 0-1.7 1.4-3.1 3.1-3.1 1.7 0 3.1 1.4 3.1 3.1C20.1 10.7 18.7 12.2 16.9 12.2zM16.9 7.9c-0.6 0-1.2 0.5-1.2 1.2 0 0.6 0.5 1.2 1.2 1.2 0.6 0 1.2-0.5 1.2-1.2C18.1 8.4 17.6 7.9 16.9 7.9z"/><path class="st1" d="M7.3 12.1c-1.7 0-3.1-1.4-3.1-3.1s1.4-3.1 3.1-3.1 3.1 1.4 3.1 3.1S9 12.1 7.3 12.1zM7.3 7.8C6.7 7.8 6.1 8.4 6.1 9c0 0.6 0.5 1.2 1.2 1.2 0.6 0 1.2-0.5 1.2-1.2C8.4 8.4 7.9 7.8 7.3 7.8z"/><path class="st1" d="M26.6 12.2c-1.7 0-3.1-1.4-3.1-3.1 0-1.7 1.4-3.1 3.1-3.1 1.7 0 3.1 1.4 3.1 3.1C29.7 10.8 28.3 12.2 26.6 12.2zM26.6 7.9c-0.6 0-1.2 0.5-1.2 1.2 0 0.6 0.5 1.2 1.2 1.2 0.6 0 1.2-0.5 1.2-1.2C27.7 8.4 27.2 7.9 26.6 7.9z"/><g class="st2"><path class="st3" d="M32.5 47.4h-5.3l0 0c-0.6-0.1-1-0.5-1.1-1l0-0.1-0.3-3c-0.6-0.3-1.2-0.6-1.8-1.1l-2.7 1.2c-0.3 0.2-0.6 0.2-0.9 0.1l-0.1 0c-0.3-0.1-0.5-0.3-0.6-0.6l-2.6-4.5c-0.3-0.5-0.2-1.2 0.3-1.6l0 0 2.5-1.7c-0.1-0.7-0.1-1.4 0-2.1l-2.4-1.7c-0.5-0.4-0.7-1.1-0.4-1.6l0 0 2.6-4.6 0-0.1c0.3-0.4 0.9-0.6 1.4-0.4l0 0 2.7 1.2c0.6-0.4 1.2-0.8 1.8-1.1l0.3-3.1c0.1-0.6 0.6-1 1.2-1h5.2l0 0c0.6 0.1 1 0.5 1.1 1l0 0.1 0.3 3c0.6 0.3 1.2 0.6 1.8 1.1l2.7-1.2c0.6-0.3 1.2-0.1 1.6 0.5l2.7 4.5c0.3 0.5 0.1 1.2-0.3 1.6l0 0-2.4 1.7c0.1 0.7 0.1 1.4 0 2.1l2.3 1.7c0.5 0.4 0.6 1.1 0.3 1.6l0 0L40 43.1l0 0.1c-0.3 0.4-0.9 0.6-1.4 0.4l0 0-2.7-1.2c-0.6 0.4-1.2 0.8-1.8 1.1l-0.3 3C33.7 46.9 33.1 47.4 32.5 47.4zM27.8 45.6H32l0.3-3.5 0.7-0.3c0.7-0.3 1.4-0.7 2-1.2l0.6-0.5 3.2 1.5 2.1-3.6L38.1 36l0.1-0.7c0.1-0.7 0.1-1.5 0-2.3l0 0-0.1-0.7 2.9-2.1-2.1-3.6-3.2 1.5-0.6-0.4c-0.6-0.5-1.3-0.9-2.1-1.2l-0.7-0.3-0.3-3.5H28l-0.3 3.5L27 26.4c-0.7 0.3-1.4 0.7-2 1.2l-0.6 0.5-3.2-1.5-2.1 3.6 2.9 2.1L21.9 33c-0.1 0.7-0.1 1.5 0 2.2l0 0L22 36l-0.6 0.4L19 38.1l2.1 3.6 3.2-1.5 0.6 0.4c0.6 0.5 1.3 0.9 2.1 1.2l0.7 0.3L27.8 45.6z"/><path class="st3" d="M29.7 40.9c-3.7 0-6.7-3-6.7-6.7 0-3.7 3-6.7 6.7-6.7 0 0 0.1 0 0.1 0 1.8 0 3.4 0.7 4.7 2 1.2 1.3 1.9 2.9 1.9 4.7C36.4 37.8 33.4 40.9 29.7 40.9zM29.7 29.1c-2.8 0-5.1 2.3-5.1 5.1s2.3 5.1 5.1 5.1 5.1-2.3 5.1-5.1c0-2.8-2.2-5-4.9-5.1C29.8 29.1 29.8 29.1 29.7 29.1L29.7 29.1z"/><path class="st3" d="M29.7 37.6c-1.9 0-3.5-1.6-3.5-3.5 0-1.9 1.6-3.5 3.5-3.5 0 0 0 0 0.1 0 1.9 0 3.4 1.6 3.4 3.5C33.2 36.1 31.6 37.6 29.7 37.6zM29.7 32.3c-1 0-1.8 0.8-1.8 1.8 0 1 0.8 1.8 1.8 1.8s1.8-0.8 1.8-1.8C31.6 33.1 30.8 32.3 29.7 32.3L29.7 32.3z"/></g></g><g class="st0"><g class="st2"><path class="st3" d="M25.4 3.7c-10.6 0-19.2 8.6-19.2 19.2s8.6 19.2 19.2 19.2 19.2-8.6 19.2-19.2C44.7 12.3 36.1 3.7 25.4 3.7zM25.4 5.5c5.7 0 11 2.8 14.2 7.4l-2.3 2.3c-0.6-0.3-1.2-0.5-1.8-0.5-2 0-3.7 1.6-3.7 3.7 0 0.7 0.2 1.3 0.5 1.9l-6 6c-1.1-0.7-2.6-0.7-3.7 0L18.5 22c0.3-0.6 0.5-1.2 0.5-1.9 0-2-1.6-3.7-3.7-3.7-1.7 0-3.1 1.1-3.5 2.7H8.4C10.1 11.2 17.2 5.5 25.4 5.5zM37.3 18.3c0 1-0.8 1.8-1.8 1.8-1 0-1.8-0.8-1.8-1.8s0.8-1.8 1.8-1.8C36.5 16.5 37.3 17.3 37.3 18.3zM26.3 29.3c0 1-0.8 1.8-1.8 1.8s-1.8-0.8-1.8-1.8c0-1 0.8-1.8 1.8-1.8S26.3 28.3 26.3 29.3zM17.2 20.2c0 1-0.8 1.8-1.8 1.8s-1.8-0.8-1.8-1.8 0.8-1.8 1.8-1.8S17.2 19.2 17.2 20.2zM33.9 38.1c-2.6 1.4-5.5 2.2-8.5 2.2C15.8 40.3 8 32.6 8 22.9c0-0.6 0-1.2 0.1-1.9h3.7c0.4 1.6 1.9 2.7 3.5 2.7 0.7 0 1.3-0.2 1.9-0.5l4.2 4.2c-0.3 0.6-0.5 1.2-0.5 1.9 0 2 1.6 3.7 3.7 3.7s3.7-1.6 3.7-3.7c0-0.7-0.2-1.3-0.5-1.9l6-6c0.6 0.3 1.2 0.5 1.9 0.5 2 0 3.7-1.6 3.7-3.7 0-0.7-0.2-1.3-0.5-1.9l2-2C45.3 22.9 42.3 33.5 33.9 38.1z"/></g><g class="st2"><path class="st3" d="M48.3 9.2c1.7 0 3.1-1.1 3.5-2.7h5.6V4.6h-5.6C51.5 3 50 1.9 48.3 1.8c-2 0-3.7 1.6-3.7 3.7 0 0.7 0.2 1.3 0.5 1.9L43.6 9C35.9-1.1 21.5-3 11.5 4.7S-0.5 26.8 7.2 36.9c7.3 9.5 20.6 11.8 30.6 5.3l2.8 2.8 1.3 1.3 7.4 7.4c1.9 1.9 4.9 1.9 6.8 0 1.9-1.9 1.9-4.9 0-6.8l-7.4-7.4-1.3-1.3-2.8-2.8c4.9-7.6 4.9-17.3 0-24.9l1.8-1.8C47 9 47.7 9.2 48.3 9.2zM48.3 3.7c1 0 1.8 0.8 1.8 1.8s-0.8 1.8-1.8 1.8c-1 0-1.8-0.8-1.8-1.8S47.3 3.7 48.3 3.7zM54.8 48.1c1.2 1.1 1.2 3 0 4.2-1.1 1.2-3 1.2-4.2 0 0 0 0 0 0 0l-7.4-7.4 4.2-4.2L54.8 48.1zM46.1 39.4l-4.2 4.2-2.5-2.5c0.1-0.1 0.3-0.2 0.4-0.3s0.3-0.2 0.4-0.3c0.2-0.2 0.4-0.3 0.6-0.5 0.1-0.1 0.2-0.2 0.3-0.3 0.4-0.4 0.7-0.7 1.1-1.1 0.1-0.1 0.2-0.2 0.3-0.3 0.2-0.2 0.3-0.4 0.5-0.6 0.1-0.1 0.2-0.3 0.3-0.4 0.1-0.1 0.2-0.2 0.3-0.4L46.1 39.4zM42.6 35.2c-0.3 0.4-0.6 0.8-0.9 1.2-0.1 0.1-0.2 0.2-0.3 0.3-0.3 0.3-0.6 0.6-0.9 0.9-0.1 0.1-0.3 0.3-0.4 0.4-0.3 0.3-0.6 0.6-0.9 0.9-0.1 0.1-0.2 0.2-0.3 0.3-0.4 0.3-0.8 0.6-1.2 0.9-9.5 6.8-22.7 4.6-29.4-4.9S3.6 12.5 13.1 5.7s22.7-4.6 29.4 4.9C47.8 18 47.8 27.8 42.6 35.2z"/></g></g><g class="st0"><g class="st2"><path class="st3" d="M3.9 34.3c0.3 0.2 0.6 0.4 1 0.5 0.4 0.2 1.1 0.5 1.1 0.8 0.1 0.3 0 0.6-0.1 0.9-0.1 0.3-0.3 0.5-0.4 0.8-0.3 0.6-0.9 1.6-0.1 2.3 0.2 0.2 0.5 0.4 0.9 0.7-0.2 0.4-0.3 0.9-0.3 1.3 0 0.4 0.2 0.7 0.5 0.9 0.2 0.1 0.4 0.3 0.6 0.4 0.5 0.3 0.8 0.5 0.8 0.7 0.1 0.4 0 0.7-0.1 1.1-0.1 0.2-0.1 0.5-0.1 0.7-0.1 0.8 0 1.7 0.3 2.5 0.4 1.5 1.7 2.5 3.2 2.5 0.3 0 0.5 0 0.8-0.1 2.6-0.6 5.2-1.4 7.7-2.3 2.1 1.2 3.4 4.9 3.7 6.3 0.1 0.4 0.5 0.7 0.9 0.7l23-0.1c0.3 0 0.6-0.1 0.7-0.4 0.2-0.2 0.2-0.5 0.1-0.8-0.2-0.6-0.5-1.2-0.9-1.7-0.2-0.3-0.4-0.6-0.6-1-0.4-0.8-0.8-1.7-1-2.6-0.5-1.8-0.9-3.5-1.1-5.4 0-0.3-0.2-0.6-0.5-0.8-0.3-0.1-0.7-0.1-0.9 0.1s-0.4 0.5-0.3 0.9c0.2 1.9 0.6 3.8 1.1 5.7 0.3 1 0.7 1.9 1.1 2.9 0.2 0.4 0.4 0.8 0.7 1.2l0.1 0.1L25 53.2c-0.6-2.2-1.7-4.2-3.2-5.9l0.8-0.3c0.6-0.2 1.1-0.4 1.3-0.5 3.9-1.2 5.9-3 5.8-5.3 0-0.2-0.1-0.5-0.3-0.6-0.2-0.2-0.4-0.3-0.7-0.2-0.5 0-0.9 0.4-0.9 0.9 0 0.9-0.8 2.3-4.6 3.5-0.2 0.1-0.7 0.2-1.4 0.5-0.7 0.2-1.5 0.5-2.5 0.9h0c-2.6 0.9-5.2 1.7-7.9 2.4-0.9 0.2-1.7-0.4-1.9-1.2-0.2-0.5-0.3-1.1-0.2-1.6 0-0.2 0.1-0.4 0.1-0.6 0.2-0.6 0.2-1.3 0.1-2-0.3-0.8-0.9-1.5-1.7-1.9l-0.2-0.1C7.9 41 8 40.8 8.2 40.6c0.2-0.2 0.2-0.4 0.2-0.7 0-0.2-0.2-0.5-0.4-0.6-0.2-0.2-0.7-0.5-1.1-0.9 0-0.1 0.1-0.2 0.1-0.2 0.1-0.3 0.3-0.5 0.5-0.9 0.3-0.6 0.4-1.4 0.2-2.1-0.2-1.1-1.3-1.7-2.1-2.1-0.3-0.1-0.5-0.3-0.8-0.4-0.2-0.1-0.4-0.3-0.5-0.4 0-0.1 0.1-0.5 0.8-1.3 1.6-2.1 3-4.4 4.2-6.8 0.2-0.4 0.3-0.8 0.4-1.2-0.1-0.9-0.6-1.8-1.3-2.3-0.4-0.3-0.7-0.7-0.8-1 0-0.2 0.1-0.4 0.1-0.6 0.1-0.4 0.3-0.8 0.5-1.2 0.4-0.8 0.7-1.6 0.9-2.4l0.1-0.4c0.2-0.9 0.4-1.8 0.7-2.7 0.7-2 1.8-3.8 3.3-5.4 1.8-1.9 4.5-3.2 8.2-3.9 2.8-0.6 5.7-1 8.6-1.2 1.4-0.1 2.9 0 4.3 0.2 0.5 0.1 1-0.3 1-0.7s-0.2-1-0.7-1.1C33.2 0 31.6-0.1 30 0c-3 0.2-5.9 0.6-8.9 1.3C17 2.1 14 3.6 12 5.7c-1.6 1.7-2.9 3.8-3.7 6-0.3 1-0.6 1.9-0.8 2.9l-0.1 0.4c-0.2 0.7-0.5 1.4-0.8 2.1-0.2 0.4-0.4 0.8-0.5 1.3-0.2 0.5-0.3 1-0.2 1.5 0.2 0.8 0.7 1.5 1.3 2 0.4 0.4 0.7 0.7 0.7 1 0 0.1-0.1 0.3-0.2 0.4-1.1 2.3-2.4 4.5-4 6.5-0.7 0.8-1.4 1.7-1.2 2.7C2.7 33.3 3.2 33.9 3.9 34.3z"/><path class="st3" d="M12.7 16.3l0.1-0.4c0.2-0.8 0.4-1.5 0.6-2.3 0.6-1.5 1.4-2.9 2.5-4.1 1.2-1.1 2.6-1.9 4.2-2.3 0.3-0.1 0.6-0.3 0.6-0.7 0.1-0.3 0-0.7-0.3-0.9-0.2-0.2-0.6-0.3-0.9-0.2-1.9 0.5-3.6 1.5-5 2.8-1.3 1.4-2.3 3-2.9 4.8-0.3 0.8-0.5 1.6-0.7 2.5L11 15.9c-0.1 0.5 0.2 1 0.7 1.1 0.1 0 0.1 0 0.2 0C12.3 17 12.6 16.7 12.7 16.3z"/><circle class="st3" cx="11.8" cy="20.3" r="0.9"/><path class="st3" d="M27.3 18.5c-0.1 3.1 1 6.2 3.1 8.5 0.6 0.7 1.4 1.3 2.1 1.8 1.3 1 2.6 2 2.9 3.4-1 0.4-1.7 1.4-1.7 2.6v1.8c0 1.2 0.7 2.2 1.8 2.6v0.2c0 2 1.6 3.7 3.7 3.7 2 0 3.7-1.6 3.7-3.7v-0.2c1.1-0.4 1.8-1.4 1.8-2.6v-1.8c0-1.1-0.7-2.1-1.7-2.6 0.3-1.4 1.6-2.4 2.9-3.4 0.8-0.5 1.5-1.2 2.1-1.8 2.1-2.4 3.2-5.4 3.1-8.5 0-6.6-5.3-12-11.9-12.1C32.6 6.6 27.3 11.9 27.3 18.5zM36.4 20.2h-0.9c-0.5 0-0.9-0.4-0.9-0.9 0-0.5 0.4-0.9 0.9-0.9s0.9 0.4 0.9 0.9V20.2zM40.1 32.1h-1.8V22h1.8V32.1zM39.2 41.3c-1 0-1.8-0.8-1.8-1.8H41C41 40.4 40.2 41.3 39.2 41.3zM42.8 36.7c0 0.5-0.4 0.9-0.9 0.9h-5.5c-0.5 0-0.9-0.4-0.9-0.9v-1.8c0-0.5 0.4-0.9 0.9-0.9h5.5c0.5 0 0.9 0.4 0.9 0.9V36.7zM49.2 18.6c0.1 2.7-0.9 5.2-2.6 7.3-0.6 0.6-1.2 1.1-1.9 1.6-1.1 0.8-2 1.7-2.8 2.7V22h0.9c1.5 0 2.7-1.2 2.7-2.7s-1.2-2.7-2.7-2.7c-1.5 0-2.7 1.2-2.7 2.7v0.9h-1.8v-0.9c0-1.5-1.2-2.7-2.7-2.7s-2.7 1.2-2.7 2.7S34 22 35.5 22h0.9v8.1c-0.8-1-1.8-2-2.8-2.7-0.7-0.5-1.3-1-1.9-1.6-1.7-2-2.7-4.6-2.6-7.3C29.2 13 33.8 8.3 39.2 8.3S49.2 13 49.2 18.6zM41.9 20.2v-0.9c0-0.5 0.4-0.9 0.9-0.9s0.9 0.4 0.9 0.9c0 0.5-0.4 0.9-0.9 0.9H41.9z"/><path class="st3" d="M53.8 19.3h2.7c0.5 0 0.9-0.4 0.9-0.9s-0.4-0.9-0.9-0.9h-2.7c-0.5 0-0.9 0.4-0.9 0.9S53.3 19.3 53.8 19.3z"/><path class="st3" d="M49.5 8.9c0.2 0 0.5-0.1 0.6-0.3l1.9-1.9c0.2-0.2 0.3-0.6 0.2-0.9S52 5.2 51.7 5.1c-0.3-0.1-0.7 0-0.9 0.2l-1.9 1.9c-0.3 0.3-0.3 0.7-0.2 1S49.2 8.9 49.5 8.9z"/><path class="st3" d="M39.2 4.6c0.5 0 0.9-0.4 0.9-0.9V0.9c0-0.5-0.4-0.9-0.9-0.9s-0.9 0.4-0.9 0.9v2.7C38.3 4.2 38.7 4.6 39.2 4.6z"/><path class="st3" d="M29.4 8.6c0.2-0.2 0.3-0.4 0.3-0.6 0-0.2-0.1-0.5-0.3-0.6l-1.9-1.9c-0.2-0.2-0.6-0.3-0.9-0.2C26.3 5.2 26 5.5 26 5.8c-0.1 0.3 0 0.7 0.2 0.9l1.9 1.9c0.2 0.2 0.4 0.3 0.6 0.3S29.3 8.8 29.4 8.6z"/><path class="st3" d="M21.8 17.4c-0.5 0-0.9 0.4-0.9 0.9s0.4 0.9 0.9 0.9h2.7c0.5 0 0.9-0.4 0.9-0.9s-0.4-0.9-0.9-0.9H21.8z"/></g></g><g class="st0"><path class="st1" d="M44.7 40.3c0.5 0 0.9-0.4 0.9-0.9v-2.7h3.7c4 0 7.5-2.9 8.1-6.9 0.6-4-1.7-7.9-5.5-9.1 0.1-0.4 0.1-0.9 0.1-1.3 0-1.7-0.7-3.4-2-4.6-1.3-1.2-3-1.9-4.7-1.8C44.1 5.9 38.4 0.7 31.4 0.1s-13.6 3.5-16 10.1c-2.1-0.3-4.2 0.4-5.8 1.8-1.6 1.4-2.5 3.4-2.5 5.5 0 0.7 0.1 1.3 0.3 2-3.7 2-5.6 6.2-4.6 10.3 1 4.1 4.7 6.9 8.9 6.9h2.7v2.7c0 0.5 0.4 0.9 0.9 0.9h7.3v5.5h-8.4c-0.4-1.3-1.7-2-3.1-1.8-1.3 0.2-2.3 1.4-2.3 2.7 0 1.3 1 2.5 2.3 2.7 1.3 0.2 2.6-0.5 3.1-1.8h9.3c0.5 0 0.9-0.4 0.9-0.9v-6.4h4.6v9.3c-1.3 0.4-2 1.7-1.8 3.1C27.5 54 28.7 55 30 55c1.3 0 2.5-1 2.7-2.3 0.2-1.3-0.5-2.6-1.8-3.1v-9.3h4.6v6.4c0 0.5 0.4 0.9 0.9 0.9h9.3c0.4 1.3 1.7 2 3.1 1.8 1.3-0.2 2.3-1.4 2.3-2.7 0-1.3-1-2.5-2.3-2.7-1.3-0.2-2.6 0.5-3.1 1.8h-8.4v-5.5H44.7zM11.7 47.7c-0.5 0-0.9-0.4-0.9-0.9 0-0.5 0.4-0.9 0.9-0.9 0.5 0 0.9 0.4 0.9 0.9C12.6 47.2 12.2 47.7 11.7 47.7zM30 53.2c-0.5 0-0.9-0.4-0.9-0.9 0-0.5 0.4-0.9 0.9-0.9 0.5 0 0.9 0.4 0.9 0.9C30.9 52.7 30.5 53.2 30 53.2zM48.3 45.8c0.5 0 0.9 0.4 0.9 0.9 0 0.5-0.4 0.9-0.9 0.9-0.5 0-0.9-0.4-0.9-0.9C47.4 46.2 47.8 45.8 48.3 45.8zM14.4 32.1v2.7h-2.7c-3.5 0-6.5-2.5-7.2-5.9-0.7-3.4 1.1-6.9 4.4-8.2 0.2-0.1 0.4-0.3 0.5-0.5 0.1-0.2 0.1-0.5 0-0.7-0.3-0.7-0.4-1.4-0.4-2.1 0-3 2.5-5.5 5.5-5.5 0.5 0 0.9 0.1 1.3 0.2 0.5 0.1 1-0.1 1.1-0.6 1.9-6.2 7.9-10.2 14.4-9.6C37.7 2.5 42.9 7.5 43.6 14c0 0.3 0.2 0.5 0.4 0.6 0.2 0.2 0.5 0.2 0.7 0.2 0.3-0.1 0.6-0.1 0.8-0.1 2.5 0 4.6 2.1 4.6 4.6 0 0.6-0.1 1.1-0.3 1.6-0.1 0.3-0.1 0.5 0 0.8s0.4 0.4 0.6 0.5c3.2 0.7 5.4 3.7 5.1 6.9-0.3 3.3-3.1 5.8-6.4 5.8h-3.7v-2.7c0-0.5-0.4-0.9-0.9-0.9h-1.8v-1.8h1.8c0.5 0 0.9-0.4 0.9-0.9v-7.3c0-0.5-0.4-0.9-0.9-0.9H15.3c-0.5 0-0.9 0.4-0.9 0.9v7.3c0 0.5 0.4 0.9 0.9 0.9h1.8v1.8h-1.8C14.8 31.2 14.4 31.6 14.4 32.1zM16.2 27.5V22h27.5v5.5H16.2zM19 29.3h22v1.8H19V29.3zM16.2 33h27.5v5.5H16.2V33z"/><path class="st1" d="M21.7 24.8c0 1-0.8 1.8-1.8 1.8-1 0-1.8-0.8-1.8-1.8 0-1 0.8-1.8 1.8-1.8C20.9 22.9 21.7 23.7 21.7 24.8z"/><path class="st1" d="M21.7 35.7c0 1-0.8 1.8-1.8 1.8-1 0-1.8-0.8-1.8-1.8 0-1 0.8-1.8 1.8-1.8C20.9 33.9 21.7 34.7 21.7 35.7z"/></g><g class="st0"><g class="st2"><path class="st3" d="M56 2.5H4c-2 0-3.7 1.6-3.7 3.7v35.3c0 2 1.6 3.7 3.7 3.7h17.6l-0.7 5.7h-2.9c-0.5 0-0.9 0.4-0.9 0.9 0 0.5 0.4 0.9 0.9 0.9h24.1c0.5 0 0.9-0.4 0.9-0.9 0-0.5-0.4-0.9-0.9-0.9h-2.9l-0.7-5.7H56c2 0 3.7-1.6 3.7-3.7V6.2C59.6 4.1 58 2.5 56 2.5zM22.6 50.8l0.7-5.7h3.2l0.3 1.3c0.4 1.4 1.7 2.5 3.1 2.5s2.8-1 3.1-2.5l0.3-1.3h3.2l0.7 5.7H22.6zM28.3 45.1h3.3l-0.2 0.8c-0.2 0.7-0.8 1.1-1.5 1.1-0.7 0-1.3-0.5-1.5-1.1L28.3 45.1zM57.9 41.4L57.9 41.4c0 1.1-0.9 1.9-1.9 1.9H4c-1.1 0-1.9-0.9-1.9-1.9V6.2C2.1 5.1 3 4.2 4 4.2h52c1.1 0 1.9 0.9 1.9 1.9V41.4L57.9 41.4z"/></g><g class="st2"><path class="st3" d="M49.5 6.2H4.9c-0.5 0-0.9 0.4-0.9 0.9v33.4c0 0.5 0.4 0.9 0.9 0.9h1.9c0.5 0 0.9-0.4 0.9-0.9 0-0.5-0.4-0.9-0.9-0.9h-1V7.9h43.7c0.5 0 0.9-0.4 0.9-0.9C50.4 6.6 50 6.2 49.5 6.2z"/></g><g class="st2"><path class="st3" d="M55.1 6.2h-1.9c-0.5 0-0.9 0.4-0.9 0.9 0 0.5 0.4 0.9 0.9 0.9h1v31.7H10.5c-0.5 0-0.9 0.4-0.9 0.9 0 0.5 0.4 0.9 0.9 0.9h44.6c0.5 0 0.9-0.4 0.9-0.9V7.1C55.9 6.6 55.5 6.2 55.1 6.2z"/></g><g class="st2"><path class="st3" d="M41.8 15.8c-0.2-0.2-0.4-0.3-0.6-0.3l-20.4-0.9c0 0 0 0 0 0-0.1-0.4-0.4-0.7-0.7-1l-2.5-1.7c-0.4-0.3-0.9-0.2-1.2 0.2-0.3 0.4-0.2 0.9 0.2 1.2L19 15c0 0 0 0 0 0l3.2 11.1c0.1 0.3 0.3 0.7 0.5 0.9l-1.2 2.3c-0.3 0.6-0.3 1.2 0.1 1.7 0.1 0.2 0.3 0.4 0.4 0.5-0.2 0.4-0.4 0.9-0.4 1.3 0 1.5 1.2 2.7 2.7 2.7 1.5 0 2.7-1.2 2.7-2.7 0-0.3-0.1-0.7-0.2-1h7.9c-0.1 0.3-0.2 0.6-0.2 1 0 1.5 1.2 2.7 2.7 2.7s2.7-1.2 2.7-2.7c0-0.4-0.1-0.8-0.3-1.2 0.2-0.2 0.3-0.4 0.3-0.6 0-0.5-0.4-0.9-0.9-0.9H23.1c0 0 0 0-0.1 0 0 0 0 0 0-0.1l1.1-2.1c0.2 0.1 0.4 0.1 0.7 0.1 0.1 0 0.2 0 0.3 0l12.2-1.4c1.6-0.2 2.8-1.4 3.2-2.9l1.5-7.3C42 16.3 42 16 41.8 15.8zM37.4 32.1c0.5 0 1 0.4 1 1 0 0.5-0.4 1-1 1s-1-0.4-1-1C36.4 32.5 36.9 32.1 37.4 32.1zM24.4 32.1c0.5 0 1 0.4 1 1s-0.4 1-1 1-1-0.4-1-1C23.4 32.5 23.9 32.1 24.4 32.1zM22.3 20.1l-1.1-3.8 3.5 0.2 0.6 3.7H22.3zM25 26.5c-0.5 0.1-0.9-0.2-1.1-0.7l-1.1-3.9h2.8l0.7 4.4L25 26.5zM30.1 25.9l-2 0.2-0.7-4.2h2.7V25.9zM30.1 20.1h-3l-0.6-3.6 3.6 0.2V20.1zM34.5 25.3l-2.7 0.3v-3.8h3L34.5 25.3zM34.9 20.1h-3.1v-3.3l3.4 0.2L34.9 20.1zM38.8 23.5c-0.2 0.8-0.8 1.4-1.7 1.5l-1 0.1 0.3-3.3h2.6L38.8 23.5zM39.5 20.1h-2.8L37 17l3.1 0.1L39.5 20.1z"/></g></g><g class="st0"><g class="st2"><path class="st3" d="M46.1 29.8V0H2.5v48.1h31.1C35.7 52.2 40 55 44.9 55c7 0 12.6-5.7 12.6-12.6C57.5 35.8 52.5 30.4 46.1 29.8zM32.7 45.8H4.9V2.4h38.8v27.4c-6.4 0.6-11.4 6-11.4 12.6C32.2 43.5 32.4 44.7 32.7 45.8zM44.9 52.6c-5.7 0-10.3-4.6-10.3-10.3s4.6-10.3 10.3-10.3 10.3 4.6 10.3 10.3S50.5 52.6 44.9 52.6z"/></g><g class="st2"><path class="st3" d="M7.1 4.6v11.5h11.5V4.6H7.1zM16.2 13.7H9.5V7h6.8V13.7L16.2 13.7z"/></g><g class="st2"><rect x="22" y="5.7" class="st3" width="12.6" height="2.4"/></g><g class="st2"><rect x="22" y="11.4" class="st3" width="19.5" height="2.4"/></g><g class="st2"><path class="st3" d="M7.1 18.3v11.5h11.5V18.3H7.1zM16.2 27.5H9.5v-6.8h6.8V27.5L16.2 27.5z"/></g><g class="st2"><rect x="22" y="19.5" class="st3" width="12.6" height="2.4"/></g><g class="st2"><rect x="22" y="25.2" class="st3" width="19.5" height="2.4"/></g><g class="st2"><path class="st3" d="M7.1 32v11.5h11.5V32H7.1zM16.2 41.2H9.5v-6.8h6.8V41.2L16.2 41.2z"/></g><g class="st2"><polygon class="st3" points="50.3 37.5 43.2 44.7 39.4 41 37.7 42.6 43.2 48 52 39.2 "/></g></g><g class="st0"><path class="st1" d="M31.1 40c-0.2-0.4-0.6-0.7-1.1-0.7-0.5 0-0.9 0.4-1 0.8-0.1 0.4 0 0.9 0.4 1.2 0.4 0.3 0.9 0.3 1.3 0C31.1 41 31.3 40.5 31.1 40z"/><path class="st1" d="M31.2 21.4H11.5c-0.6 0-1.1 0.5-1.1 1.1 0 0.6 0.5 1.1 1.1 1.1h19.7c0.6 0 1.1-0.5 1.1-1.1C32.3 21.9 31.8 21.4 31.2 21.4z"/><path class="st1" d="M31.2 27.5H11.5c-0.6 0-1.1 0.5-1.1 1.1s0.5 1.1 1.1 1.1h19.7c0.6 0 1.1-0.5 1.1-1.1S31.8 27.5 31.2 27.5z"/><path class="st1" d="M49.7 20.2c0-0.5-0.4-0.9-0.8-1l-12.9-4c-0.4-0.1-0.8 0-1.1 0.3-0.3 0.3-0.4 0.7-0.3 1.1l4 12.9c0.1 0.4 0.5 0.8 1 0.8 0 0 0.1 0 0.1 0 0.4 0 0.8-0.2 1-0.6l1.3-2.5 2.8 2.8c0.4 0.4 1.2 0.4 1.6 0l3-3c0.2-0.2 0.3-0.5 0.3-0.8 0-0.3-0.1-0.6-0.3-0.8l-2.8-2.8 2.5-1.3C49.5 21.1 49.7 20.7 49.7 20.2zM47 26.2l-1.4 1.4-3.1-3.1c-0.2-0.2-0.5-0.3-0.8-0.3-0.1 0-0.1 0-0.2 0-0.4 0.1-0.7 0.3-0.8 0.6L40 26.2 37.4 18l8.1 2.5-1.4 0.7c-0.3 0.2-0.6 0.5-0.6 0.8-0.1 0.4 0.1 0.7 0.3 1L47 26.2z"/><path class="st1" d="M57.7 0H2.3C1.7 0 1.2 0.5 1.2 1.1v43.7c0 0.6 0.5 1.1 1.1 1.1h20.7v6.8h-6.3c-0.6 0-1.1 0.5-1.1 1.1s0.5 1.1 1.1 1.1h26.5c0.6 0 1.1-0.5 1.1-1.1s-0.5-1.1-1.1-1.1H37V46h20.7c0.6 0 1.1-0.5 1.1-1.1V1.1C58.8 0.5 58.3 0 57.7 0zM3.4 2.3h53.1v6.2H3.4V2.3zM34.7 52.7h-9.4V46h9.4V52.7zM35.9 43.7H3.4v-5.6h39.8c0.6 0 1.1-0.5 1.1-1.1 0-0.6-0.5-1.1-1.1-1.1H3.4V10.7h53.1v25.2h-4.3c-0.6 0-1.1 0.5-1.1 1.1 0 0.6 0.5 1.1 1.1 1.1h4.3v5.6H35.9z"/><path class="st1" d="M11.7 4.9c-0.2-0.5-0.7-0.7-1.1-0.7-0.5 0-0.9 0.4-1 0.8C9.4 5.5 9.6 6 10 6.3c0.4 0.3 0.9 0.3 1.3 0C11.7 6 11.9 5.4 11.7 4.9z"/><path class="st1" d="M7.2 4.9C7 4.5 6.5 4.2 6 4.2 5.6 4.3 5.2 4.6 5 5c-0.1 0.4 0 1 0.4 1.2 0.4 0.3 0.9 0.3 1.3 0C7.2 6 7.4 5.4 7.2 4.9z"/><path class="st1" d="M16.2 4.9c-0.2-0.4-0.7-0.7-1.1-0.7-0.5 0-0.9 0.4-1 0.8C14 5.5 14.1 6 14.5 6.3c0.4 0.3 0.9 0.3 1.3 0C16.2 6 16.4 5.4 16.2 4.9z"/><path class="st1" d="M48.8 36.6c-0.2-0.4-0.6-0.7-1.1-0.7-0.5 0-0.9 0.4-1 0.8-0.1 0.4 0 0.9 0.4 1.2 0.4 0.3 0.9 0.3 1.3 0C48.8 37.6 49 37 48.8 36.6z"/><path class="st1" d="M31.2 15.2H11.5c-0.6 0-1.1 0.5-1.1 1.1 0 0.6 0.5 1.1 1.1 1.1h19.7c0.6 0 1.1-0.5 1.1-1.1C32.3 15.7 31.8 15.2 31.2 15.2z"/></g><g class="st0"><path class="st1" d="M22.2 3.7h-7.7c-0.6 0-1.1 0.5-1.1 1.1s0.5 1.1 1.1 1.1h7.7c0.6 0 1.1-0.5 1.1-1.1S22.8 3.7 22.2 3.7z"/><path class="st1" d="M52.4 31.5l-8.8-8.8c-1.8-1.8-4.6-1.9-6.2-0.2-0.6 0.6-0.9 1.3-1.1 2-0.7-0.4-1.4-0.6-2.1-0.6-0.3 0-0.7 0-1 0.1v-5.1h9.5c0.6 0 1.1-0.5 1.1-1.1s-0.5-1.1-1.1-1.1h-9.5V4.9C33.2 2.2 31 0 28.3 0H8.4C5.7 0 3.6 2.2 3.6 4.9v7.7c0 0.6 0.5 1.1 1.1 1.1 0.6 0 1.1-0.5 1.1-1.1V9.7H31v15.5c-0.5 0.5-0.9 1.3-1 2-1.7-1-3.9-0.8-5.3 0.6-0.5 0.5-0.9 1.2-1.1 1.9l-3.7-3.7c-1.7-1.7-4.2-1.8-5.9-0.5-0.1 0.1-0.2 0.2-0.3 0.3-1.7 1.7-1.6 4.5 0.2 6.2l5.2 5.2H5.8V21.4c0-0.6-0.5-1.1-1.1-1.1-0.6 0-1.1 0.5-1.1 1.1v24.9c0 2.7 2.2 4.9 4.9 4.9h12.7c0.3 2.1 2.1 3.8 4.3 3.8 0 0 17.1 0 17.2 0 3.6 0 7.2-1.5 9.8-4C57.8 45.6 57.8 36.8 52.4 31.5zM5.8 7.5V4.9c0-1.5 1.2-2.7 2.7-2.7h19.9c1.5 0 2.7 1.2 2.7 2.7v2.6H5.8zM5.8 46.3v-7.1h15.4l6.3 6.3c-0.6 0-1.3 0-1.9 0-0.5 0-1 0-1.4 0.2-0.7 0.2-1.4 0.6-1.9 1.1-0.6 0.6-1 1.3-1.2 2.2H8.4C7 49 5.8 47.8 5.8 46.3zM50.9 49.4c-2.3 2.3-5.4 3.5-8.6 3.4 0 0-16.8 0-16.8 0-1.1 0-2.1-0.9-2.2-2 0-0.3 0-0.6 0-0.9 0-0.5 0.2-1 0.5-1.4 0.4-0.5 1-0.7 1.6-0.7h4.3l1.7 1.7c0.2 0.2 0.5 0.3 0.8 0.3 0.3 0 0.6-0.1 0.8-0.3 0.4-0.4 0.4-1.1 0-1.6L15.4 30.3c-0.6-0.6-0.9-1.5-0.7-2.3 0.1-0.4 0.3-0.8 0.7-1 0.4-0.3 0.9-0.4 1.4-0.4 0.6 0.1 1.1 0.3 1.5 0.7l12.1 12.1c0.2 0.2 0.5 0.3 0.8 0.3 0.3 0 0.6-0.1 0.8-0.3 0.4-0.4 0.4-1.1 0-1.6l-5.5-5.5c-0.9-0.9-1-2.3-0.2-3.1 0.8-0.8 2.2-0.7 3.1 0.2l5.5 5.5c0.2 0.2 0.5 0.3 0.8 0.3 0.3 0 0.6-0.1 0.8-0.3 0.4-0.4 0.4-1.1 0-1.6l-3.6-3.6c-0.2-0.2-0.3-0.4-0.4-0.6C32.1 28.8 32 28.4 32 28c0-0.5 0.2-1 0.6-1.3 0 0 0.1-0.1 0.1-0.1 0 0 0 0 0 0 0.4-0.3 0.8-0.4 1.3-0.4 0.6 0 1.2 0.3 1.7 0.7l3.6 3.6c0.2 0.2 0.5 0.3 0.8 0.3 0.3 0 0.6-0.1 0.8-0.3 0.4-0.4 0.4-1.1 0-1.6l-1.7-1.7c-0.5-0.5-0.7-1-0.7-1.6 0-0.6 0.2-1.1 0.5-1.5 0.8-0.8 2.2-0.7 3.1 0.2l8.8 8.8C55.4 37.5 55.4 44.9 50.9 49.4z"/><path class="st1" d="M3.6 17.4c0.2 0.4 0.6 0.7 1.1 0.7 0.5 0 0.9-0.3 1-0.8 0.1-0.4 0-0.9-0.4-1.2C5 15.9 4.4 15.8 4 16.1 3.6 16.4 3.4 17 3.6 17.4z"/><path class="st1" d="M18.4 41c-1.7 0-3.1 1.4-3.1 3.1 0 1.7 1.4 3.1 3.1 3.1s3.1-1.4 3.1-3.1S20.1 41 18.4 41zM18.4 45c-0.5 0-0.9-0.4-0.9-0.9s0.4-0.9 0.9-0.9 0.9 0.4 0.9 0.9S18.9 45 18.4 45z"/><path class="st1" d="M12.3 23c-0.4-0.4-1.1-0.4-1.6 0-1.5 1.5-2.4 3.5-2.4 5.7 0 2.1 0.8 4.2 2.4 5.7 0.2 0.2 0.5 0.3 0.8 0.3 0.3 0 0.6-0.1 0.8-0.3 0.4-0.4 0.4-1.1 0-1.6-1.1-1.1-1.7-2.6-1.7-4.1s0.6-3 1.7-4.1C12.7 24.1 12.7 23.4 12.3 23z"/><path class="st1" d="M36.5 14.3h9c0.6 0 1.1-0.5 1.1-1.1s-0.5-1.1-1.1-1.1h-9c-0.6 0-1.1 0.5-1.1 1.1S35.9 14.3 36.5 14.3z"/><path class="st1" d="M48.9 13.7c0.2 0.4 0.6 0.7 1.1 0.7 0.5 0 0.8-0.3 1-0.8 0.1-0.4 0-0.9-0.4-1.2-0.4-0.3-0.9-0.3-1.2 0C48.9 12.6 48.7 13.2 48.9 13.7z"/></g><path class="st4" d="M57.5 23.1h-2l-3 1.6c-0.3-0.2-0.7-0.3-1.1-0.4l-3.7-0.9v-0.4c1.7-1.2 2.7-3.1 2.7-5.1v-1.6c0-3.4-2.7-6.3-6-6.4-0.2 0-0.3 0-0.5 0l1-2.3-4.7-4.7-2.8 1.8c-1.1-0.6-2.2-1.1-3.3-1.4L33.4 0h-6.8l-0.7 3.2c-1.2 0.3-2.3 0.8-3.3 1.4l-2.8-1.8-4.7 4.7 1 2.3c0 0-0.1 0-0.1 0-1.7 0-3.3 0.6-4.5 1.8-1.2 1.2-1.9 2.8-1.9 4.5v1.8c0 2 1 3.9 2.7 5.1v0.4l-2.4 0.6-4.4-2.6H2.5v18.4l8.7 2.9h1.7l0.2-0.7 2.7 1.6c0 1.5 1.2 2.6 2.7 2.7 0.1 1.4 1.2 2.6 2.7 2.7 0.1 1.4 1.2 2.6 2.7 2.7 0.1 1.5 1.3 2.7 2.8 2.7 0.6 0 1.1-0.2 1.6-0.5l0.8 0.7c0.5 0.4 1.1 0.7 1.8 0.7h0.2c1.5 0 2.7-1.2 2.7-2.7 1.5 0 2.6-1.2 2.7-2.7 1.5 0 2.6-1.2 2.7-2.7 1.5 0 2.7-1.2 2.7-2.7 0-0.1 0-0.2 0-0.3l16-8V23.1zM48.6 16.2v1.6c0 1.6-0.9 3-2.2 3.8L46 21.8l0 2.8 4.4 1.1-9.8 5.1v-2.4c0-1.2-0.5-2.3-1.3-3.1l3-0.8v-2.8L42 21.6c-1.4-0.8-2.2-2.3-2.2-3.8V16c0-1.2 0.5-2.3 1.3-3.2 0.9-0.8 2-1.3 3.2-1.2C46.7 11.6 48.6 13.7 48.6 16.2zM31.3 30.2l-4-1.3c-1.8-0.6-3.8-0.7-5.7-0.3l-0.5 0.1v-0.3c0-1.2 0.8-2.3 2-2.6l5.1-1.3v-2.8l-0.4-0.3c-1.4-0.8-2.2-2.3-2.2-3.8V16c0-1.2 0.5-2.3 1.3-3.2 0.9-0.8 2-1.3 3.2-1.2 2.4 0.1 4.3 2.2 4.3 4.7v1.6c0 1.6-0.9 3-2.2 3.8l-0.4 0.3 0 2.8 5.1 1.3c1.2 0.3 2 1.4 2 2.6v3.3l-0.2 0.1h-0.5l-5.5-1.6C32.2 30.3 31.8 30.2 31.3 30.2zM21.3 13.3C23 10 26.3 8 30 8c3.6 0 7 2 8.6 5.2C38.2 14.1 38 15 38 16v1.8c0 2 1 3.9 2.7 5.1v0.4l-3.5 0.9-3.5-0.9v-0.4c1.7-1.2 2.7-3.1 2.7-5.1v-1.6c0-3.4-2.7-6.3-6-6.4-1.7 0-3.3 0.6-4.5 1.8-1.2 1.2-1.9 2.8-1.9 4.5v1.8c0 2 1 3.9 2.7 5.1v0.4l-3.5 0.9-3.5-0.9v-0.4c1.7-1.2 2.7-3.1 2.7-5.1v-1.6C22 15.1 21.8 14.2 21.3 13.3zM17.2 7.9l2.8-2.8 2.5 1.6 0.5-0.3c1.2-0.7 2.5-1.3 3.8-1.6l0.5-0.1 0.6-2.9h3.9l0.6 2.9 0.5 0.1c1.4 0.3 2.6 0.9 3.8 1.6l0.5 0.3 2.5-1.6 2.8 2.8-1 2.4c-0.7 0.3-1.3 0.7-1.9 1.2 0 0-0.1 0.1-0.1 0.1C37.7 8.3 34 6.2 30 6.2c-4 0-7.7 2.1-9.8 5.5-0.6-0.6-1.2-1.1-2-1.4L17.2 7.9zM14 24.6v-2.8l-0.4-0.3c-1.4-0.8-2.2-2.3-2.2-3.8V16c0-1.2 0.5-2.3 1.3-3.2 0.9-0.8 2-1.3 3.2-1.2 2.4 0.1 4.3 2.2 4.3 4.7v1.6c0 1.6-0.9 3-2.2 3.8l-0.4 0.3 0 2.8 3 0.8c-0.8 0.8-1.3 1.9-1.3 3.1v0.7l-2.8 0.6 0.1-0.3 0-1.6L12 25.1 14 24.6zM4.3 23.1h0.6l6.4 3.7L8.1 39.7l-3.8-1.3V23.1zM11.5 40.8l-1.7-0.6 3.1-12.5 2 1.2v0.3L11.5 40.8 11.5 40.8zM17.6 43.4c0-0.3 0.1-0.5 0.3-0.7l1.6-1.6c0.2-0.2 0.4-0.3 0.7-0.3 0.5 0 1 0.4 1 1 0 0.3-0.1 0.5-0.3 0.7l-1.6 1.6c-0.2 0.2-0.4 0.3-0.7 0.3C18 44.4 17.6 43.9 17.6 43.4zM20.2 46c0-0.3 0.1-0.5 0.3-0.7l1.6-1.6c0.2-0.2 0.4-0.3 0.7-0.3 0.5 0 1 0.4 1 1 0 0.3-0.1 0.5-0.3 0.7l-1.6 1.6c-0.2 0.2-0.4 0.3-0.7 0.3C20.7 47 20.2 46.6 20.2 46zM22.9 48.7c0-0.3 0.1-0.5 0.3-0.7l1.6-1.6c0.2-0.2 0.4-0.3 0.7-0.3 0.5 0 1 0.4 1 1 0 0.3-0.1 0.5-0.3 0.7l-1.6 1.6c-0.2 0.2-0.4 0.3-0.7 0.3C23.3 49.7 22.9 49.2 22.9 48.7zM26.6 52.3c-0.5 0-1-0.4-1-1 0-0.3 0.1-0.5 0.3-0.7l1.6-1.6c0.2-0.2 0.4-0.3 0.7-0.3 0.5 0 1 0.4 1 1 0 0.3-0.1 0.5-0.3 0.7L27.3 52C27.1 52.2 26.8 52.3 26.6 52.3zM30.8 53.2h-0.2c-0.2 0-0.4-0.1-0.6-0.2l-0.7-0.6 0.7-0.7c0.2-0.2 0.4-0.5 0.6-0.8l0.8 0.7c0.2 0.2 0.3 0.4 0.3 0.7C31.8 52.8 31.4 53.2 30.8 53.2zM38.8 45.2h-0.2c-0.2 0-0.4-0.1-0.6-0.2l-4.8-4-1.1 1.4 4.7 3.9c0.2 0.2 0.3 0.4 0.3 0.7 0 0.5-0.4 0.9-0.9 0.9H36c-0.2 0-0.4-0.1-0.6-0.2l-4.8-4L29.4 45l4.7 3.9c0.2 0.2 0.3 0.4 0.3 0.7 0 0.5-0.4 0.9-0.9 0.9-0.3 0-0.7-0.1-0.9-0.3l-2-1.7c-0.4-0.9-1.3-1.5-2.4-1.6-0.1-1.4-1.2-2.6-2.7-2.7-0.1-1.4-1.2-2.6-2.7-2.7-0.1-1.5-1.3-2.7-2.8-2.7-0.7 0-1.4 0.3-2 0.8l-1.6 1.6c-0.1 0.1-0.2 0.2-0.2 0.3l-2.7-1.6 2.4-8.4 6-1.3c1.6-0.4 3.2-0.3 4.8 0.2l1.3 0.4-4.4 2.2c-1 0.5-1.6 1.5-1.6 2.7v0.2c0 1.6 1.3 3 3 3 0.5 0 1.1-0.1 1.5-0.4l3.3-2c0.7-0.4 1.6-0.3 2.1 0.2l7.5 6.7c0.2 0.2 0.3 0.4 0.3 0.7C39.8 44.8 39.3 45.2 38.8 45.2zM55.7 34.9l-14.9 7.5c0-0.1-0.1-0.1-0.2-0.1l-7.5-6.7c-0.7-0.6-1.5-0.9-2.4-0.9-0.6 0-1.3 0.2-1.8 0.5l-3.3 2c-0.2 0.1-0.4 0.2-0.6 0.2-0.7 0-1.2-0.5-1.2-1.2v-0.2c0-0.5 0.3-0.9 0.7-1.1l4.9-2.5c0.8-0.4 1.9-0.5 2.8-0.3l5.6 1.6 1.4 0L55.7 25V34.9z"/><path class="st5" d="M23.7 39.5c-0.2 0-0.5-0.1-0.6-0.2l-6.4-5.5c-0.2-0.2-0.3-0.5-0.3-0.8 0-0.3 0.1-0.6 0.3-0.8l6.4-5.5c0.4-0.4 1-0.3 1.4 0.1 0.4 0.4 0.3 1-0.1 1.4l-5.5 4.7 5.5 4.7c0.4 0.4 0.5 1 0.1 1.4C24.2 39.4 24 39.5 23.7 39.5z"/><path class="st5" d="M36.3 39.5c-0.3 0-0.6-0.1-0.8-0.3-0.4-0.4-0.3-1 0.1-1.4l5.5-4.7-5.5-4.7c-0.4-0.4-0.5-1-0.1-1.4 0.4-0.4 1-0.5 1.4-0.1l6.4 5.5c0.2 0.2 0.3 0.5 0.3 0.8 0 0.3-0.1 0.6-0.3 0.8L37 39.3C36.8 39.5 36.6 39.5 36.3 39.5z"/><path class="st5" d="M27.7 43.6c-0.1 0-0.1 0-0.2 0-0.5-0.1-0.9-0.6-0.8-1.2l4-19c0.1-0.5 0.6-0.9 1.2-0.8 0.5 0.1 0.9 0.6 0.8 1.2l-4 19C28.6 43.3 28.2 43.6 27.7 43.6z"/><path class="st3" d="M53.3 54H6.7C3 54 0 51 0 47.3V7.7C0 4 3 1 6.7 1h46.7C57 1 60 4 60 7.7v39.6C60 51 57 54 53.3 54zM6.7 3C4.1 3 2 5.1 2 7.7v39.6C2 49.9 4.1 52 6.7 52h46.7c2.6 0 4.7-2.1 4.7-4.7V7.7C58 5.1 55.9 3 53.3 3H6.7z"/><path class="st3" d="M59 16.9H1c-0.5 0-1-0.4-1-1 0-0.5 0.4-1 1-1h58c0.5 0 1 0.4 1 1C60 16.5 59.6 16.9 59 16.9z"/><path class="st3" d="M16.9 12.2c-1.7 0-3.1-1.4-3.1-3.1 0-1.7 1.4-3.1 3.1-3.1 1.7 0 3.1 1.4 3.1 3.1C20.1 10.7 18.7 12.2 16.9 12.2zM16.9 7.9c-0.6 0-1.2 0.5-1.2 1.2 0 0.6 0.5 1.2 1.2 1.2 0.6 0 1.2-0.5 1.2-1.2C18.1 8.4 17.6 7.9 16.9 7.9z"/><path class="st3" d="M7.3 12.1c-1.7 0-3.1-1.4-3.1-3.1s1.4-3.1 3.1-3.1 3.1 1.4 3.1 3.1S9 12.1 7.3 12.1zM7.3 7.8C6.7 7.8 6.1 8.4 6.1 9c0 0.6 0.5 1.2 1.2 1.2 0.6 0 1.2-0.5 1.2-1.2C8.4 8.4 7.9 7.8 7.3 7.8z"/><path class="st3" d="M26.6 12.2c-1.7 0-3.1-1.4-3.1-3.1 0-1.7 1.4-3.1 3.1-3.1 1.7 0 3.1 1.4 3.1 3.1C29.7 10.8 28.3 12.2 26.6 12.2zM26.6 7.9c-0.6 0-1.2 0.5-1.2 1.2 0 0.6 0.5 1.2 1.2 1.2 0.6 0 1.2-0.5 1.2-1.2C27.7 8.4 27.2 7.9 26.6 7.9z"/><g class="st0"><path class="st1" d="M53.3 54H6.7C3 54 0 51 0 47.3V7.7C0 4 3 1 6.7 1h46.7C57 1 60 4 60 7.7v39.6C60 51 57 54 53.3 54zM6.7 3C4.1 3 2 5.1 2 7.7v39.6C2 49.9 4.1 52 6.7 52h46.7c2.6 0 4.7-2.1 4.7-4.7V7.7C58 5.1 55.9 3 53.3 3H6.7z"/><path class="st1" d="M59 16.9H1c-0.5 0-1-0.4-1-1 0-0.5 0.4-1 1-1h58c0.5 0 1 0.4 1 1C60 16.5 59.6 16.9 59 16.9z"/><path class="st1" d="M16.9 12.2c-1.7 0-3.1-1.4-3.1-3.1 0-1.7 1.4-3.1 3.1-3.1 1.7 0 3.1 1.4 3.1 3.1C20.1 10.7 18.7 12.2 16.9 12.2zM16.9 7.9c-0.6 0-1.2 0.5-1.2 1.2 0 0.6 0.5 1.2 1.2 1.2 0.6 0 1.2-0.5 1.2-1.2C18.1 8.4 17.6 7.9 16.9 7.9z"/><path class="st1" d="M7.3 12.1c-1.7 0-3.1-1.4-3.1-3.1s1.4-3.1 3.1-3.1 3.1 1.4 3.1 3.1S9 12.1 7.3 12.1zM7.3 7.8C6.7 7.8 6.1 8.4 6.1 9c0 0.6 0.5 1.2 1.2 1.2 0.6 0 1.2-0.5 1.2-1.2C8.4 8.4 7.9 7.8 7.3 7.8z"/><path class="st1" d="M26.6 12.2c-1.7 0-3.1-1.4-3.1-3.1 0-1.7 1.4-3.1 3.1-3.1 1.7 0 3.1 1.4 3.1 3.1C29.7 10.8 28.3 12.2 26.6 12.2zM26.6 7.9c-0.6 0-1.2 0.5-1.2 1.2 0 0.6 0.5 1.2 1.2 1.2 0.6 0 1.2-0.5 1.2-1.2C27.7 8.4 27.2 7.9 26.6 7.9z"/><g class="st2"><path class="st5" d="M32.5 47.4h-5.3l0 0c-0.6-0.1-1-0.5-1.1-1l0-0.1-0.3-3c-0.6-0.3-1.2-0.6-1.8-1.1l-2.7 1.2c-0.3 0.2-0.6 0.2-0.9 0.1l-0.1 0c-0.3-0.1-0.5-0.3-0.6-0.6l-2.6-4.5c-0.3-0.5-0.2-1.2 0.3-1.6l0 0 2.5-1.7c-0.1-0.7-0.1-1.4 0-2.1l-2.4-1.7c-0.5-0.4-0.7-1.1-0.4-1.6l0 0 2.6-4.6 0-0.1c0.3-0.4 0.9-0.6 1.4-0.4l0 0 2.7 1.2c0.6-0.4 1.2-0.8 1.8-1.1l0.3-3.1c0.1-0.6 0.6-1 1.2-1h5.2l0 0c0.6 0.1 1 0.5 1.1 1l0 0.1 0.3 3c0.6 0.3 1.2 0.6 1.8 1.1l2.7-1.2c0.6-0.3 1.2-0.1 1.6 0.5l2.7 4.5c0.3 0.5 0.1 1.2-0.3 1.6l0 0-2.4 1.7c0.1 0.7 0.1 1.4 0 2.1l2.3 1.7c0.5 0.4 0.6 1.1 0.3 1.6l0 0L40 43.1l0 0.1c-0.3 0.4-0.9 0.6-1.4 0.4l0 0-2.7-1.2c-0.6 0.4-1.2 0.8-1.8 1.1l-0.3 3C33.7 46.9 33.1 47.4 32.5 47.4zM27.8 45.6H32l0.3-3.5 0.7-0.3c0.7-0.3 1.4-0.7 2-1.2l0.6-0.5 3.2 1.5 2.1-3.6L38.1 36l0.1-0.7c0.1-0.7 0.1-1.5 0-2.3l0 0-0.1-0.7 2.9-2.1-2.1-3.6-3.2 1.5-0.6-0.4c-0.6-0.5-1.3-0.9-2.1-1.2l-0.7-0.3-0.3-3.5H28l-0.3 3.5L27 26.4c-0.7 0.3-1.4 0.7-2 1.2l-0.6 0.5-3.2-1.5-2.1 3.6 2.9 2.1L21.9 33c-0.1 0.7-0.1 1.5 0 2.2l0 0L22 36l-0.6 0.4L19 38.1l2.1 3.6 3.2-1.5 0.6 0.4c0.6 0.5 1.3 0.9 2.1 1.2l0.7 0.3L27.8 45.6z"/><path class="st5" d="M29.7 40.9c-3.7 0-6.7-3-6.7-6.7 0-3.7 3-6.7 6.7-6.7 0 0 0.1 0 0.1 0 1.8 0 3.4 0.7 4.7 2 1.2 1.3 1.9 2.9 1.9 4.7C36.4 37.8 33.4 40.9 29.7 40.9zM29.7 29.1c-2.8 0-5.1 2.3-5.1 5.1s2.3 5.1 5.1 5.1 5.1-2.3 5.1-5.1c0-2.8-2.2-5-4.9-5.1C29.8 29.1 29.8 29.1 29.7 29.1L29.7 29.1z"/><path class="st5" d="M29.7 37.6c-1.9 0-3.5-1.6-3.5-3.5 0-1.9 1.6-3.5 3.5-3.5 0 0 0 0 0.1 0 1.9 0 3.4 1.6 3.4 3.5C33.2 36.1 31.6 37.6 29.7 37.6zM29.7 32.3c-1 0-1.8 0.8-1.8 1.8 0 1 0.8 1.8 1.8 1.8s1.8-0.8 1.8-1.8C31.6 33.1 30.8 32.3 29.7 32.3L29.7 32.3z"/></g></g><g class="st0"><g class="st2"><path class="st5" d="M25.4 3.7c-10.6 0-19.2 8.6-19.2 19.2s8.6 19.2 19.2 19.2 19.2-8.6 19.2-19.2C44.7 12.3 36.1 3.7 25.4 3.7zM25.4 5.5c5.7 0 11 2.8 14.2 7.4l-2.3 2.3c-0.6-0.3-1.2-0.5-1.8-0.5-2 0-3.7 1.6-3.7 3.7 0 0.7 0.2 1.3 0.5 1.9l-6 6c-1.1-0.7-2.6-0.7-3.7 0L18.5 22c0.3-0.6 0.5-1.2 0.5-1.9 0-2-1.6-3.7-3.7-3.7-1.7 0-3.1 1.1-3.5 2.7H8.4C10.1 11.2 17.2 5.5 25.4 5.5zM37.3 18.3c0 1-0.8 1.8-1.8 1.8-1 0-1.8-0.8-1.8-1.8s0.8-1.8 1.8-1.8C36.5 16.5 37.3 17.3 37.3 18.3zM26.3 29.3c0 1-0.8 1.8-1.8 1.8s-1.8-0.8-1.8-1.8c0-1 0.8-1.8 1.8-1.8S26.3 28.3 26.3 29.3zM17.2 20.2c0 1-0.8 1.8-1.8 1.8s-1.8-0.8-1.8-1.8 0.8-1.8 1.8-1.8S17.2 19.2 17.2 20.2zM33.9 38.1c-2.6 1.4-5.5 2.2-8.5 2.2C15.8 40.3 8 32.6 8 22.9c0-0.6 0-1.2 0.1-1.9h3.7c0.4 1.6 1.9 2.7 3.5 2.7 0.7 0 1.3-0.2 1.9-0.5l4.2 4.2c-0.3 0.6-0.5 1.2-0.5 1.9 0 2 1.6 3.7 3.7 3.7s3.7-1.6 3.7-3.7c0-0.7-0.2-1.3-0.5-1.9l6-6c0.6 0.3 1.2 0.5 1.9 0.5 2 0 3.7-1.6 3.7-3.7 0-0.7-0.2-1.3-0.5-1.9l2-2C45.3 22.9 42.3 33.5 33.9 38.1z"/></g><g class="st2"><path class="st3" d="M48.3 9.2c1.7 0 3.1-1.1 3.5-2.7h5.6V4.6h-5.6C51.5 3 50 1.9 48.3 1.8c-2 0-3.7 1.6-3.7 3.7 0 0.7 0.2 1.3 0.5 1.9L43.6 9C35.9-1.1 21.5-3 11.5 4.7S-0.5 26.8 7.2 36.9c7.3 9.5 20.6 11.8 30.6 5.3l2.8 2.8 1.3 1.3 7.4 7.4c1.9 1.9 4.9 1.9 6.8 0 1.9-1.9 1.9-4.9 0-6.8l-7.4-7.4-1.3-1.3-2.8-2.8c4.9-7.6 4.9-17.3 0-24.9l1.8-1.8C47 9 47.7 9.2 48.3 9.2zM48.3 3.7c1 0 1.8 0.8 1.8 1.8s-0.8 1.8-1.8 1.8c-1 0-1.8-0.8-1.8-1.8S47.3 3.7 48.3 3.7zM54.8 48.1c1.2 1.1 1.2 3 0 4.2-1.1 1.2-3 1.2-4.2 0 0 0 0 0 0 0l-7.4-7.4 4.2-4.2L54.8 48.1zM46.1 39.4l-4.2 4.2-2.5-2.5c0.1-0.1 0.3-0.2 0.4-0.3s0.3-0.2 0.4-0.3c0.2-0.2 0.4-0.3 0.6-0.5 0.1-0.1 0.2-0.2 0.3-0.3 0.4-0.4 0.7-0.7 1.1-1.1 0.1-0.1 0.2-0.2 0.3-0.3 0.2-0.2 0.3-0.4 0.5-0.6 0.1-0.1 0.2-0.3 0.3-0.4 0.1-0.1 0.2-0.2 0.3-0.4L46.1 39.4zM42.6 35.2c-0.3 0.4-0.6 0.8-0.9 1.2-0.1 0.1-0.2 0.2-0.3 0.3-0.3 0.3-0.6 0.6-0.9 0.9-0.1 0.1-0.3 0.3-0.4 0.4-0.3 0.3-0.6 0.6-0.9 0.9-0.1 0.1-0.2 0.2-0.3 0.3-0.4 0.3-0.8 0.6-1.2 0.9-9.5 6.8-22.7 4.6-29.4-4.9S3.6 12.5 13.1 5.7s22.7-4.6 29.4 4.9C47.8 18 47.8 27.8 42.6 35.2z"/></g></g><g class="st0"><g class="st2"><path class="st3" d="M3.9 34.3c0.3 0.2 0.6 0.4 1 0.5 0.4 0.2 1.1 0.5 1.1 0.8 0.1 0.3 0 0.6-0.1 0.9-0.1 0.3-0.3 0.5-0.4 0.8-0.3 0.6-0.9 1.6-0.1 2.3 0.2 0.2 0.5 0.4 0.9 0.7-0.2 0.4-0.3 0.9-0.3 1.3 0 0.4 0.2 0.7 0.5 0.9 0.2 0.1 0.4 0.3 0.6 0.4 0.5 0.3 0.8 0.5 0.8 0.7 0.1 0.4 0 0.7-0.1 1.1-0.1 0.2-0.1 0.5-0.1 0.7-0.1 0.8 0 1.7 0.3 2.5 0.4 1.5 1.7 2.5 3.2 2.5 0.3 0 0.5 0 0.8-0.1 2.6-0.6 5.2-1.4 7.7-2.3 2.1 1.2 3.4 4.9 3.7 6.3 0.1 0.4 0.5 0.7 0.9 0.7l23-0.1c0.3 0 0.6-0.1 0.7-0.4 0.2-0.2 0.2-0.5 0.1-0.8-0.2-0.6-0.5-1.2-0.9-1.7-0.2-0.3-0.4-0.6-0.6-1-0.4-0.8-0.8-1.7-1-2.6-0.5-1.8-0.9-3.5-1.1-5.4 0-0.3-0.2-0.6-0.5-0.8-0.3-0.1-0.7-0.1-0.9 0.1s-0.4 0.5-0.3 0.9c0.2 1.9 0.6 3.8 1.1 5.7 0.3 1 0.7 1.9 1.1 2.9 0.2 0.4 0.4 0.8 0.7 1.2l0.1 0.1L25 53.2c-0.6-2.2-1.7-4.2-3.2-5.9l0.8-0.3c0.6-0.2 1.1-0.4 1.3-0.5 3.9-1.2 5.9-3 5.8-5.3 0-0.2-0.1-0.5-0.3-0.6-0.2-0.2-0.4-0.3-0.7-0.2-0.5 0-0.9 0.4-0.9 0.9 0 0.9-0.8 2.3-4.6 3.5-0.2 0.1-0.7 0.2-1.4 0.5-0.7 0.2-1.5 0.5-2.5 0.9h0c-2.6 0.9-5.2 1.7-7.9 2.4-0.9 0.2-1.7-0.4-1.9-1.2-0.2-0.5-0.3-1.1-0.2-1.6 0-0.2 0.1-0.4 0.1-0.6 0.2-0.6 0.2-1.3 0.1-2-0.3-0.8-0.9-1.5-1.7-1.9l-0.2-0.1C7.9 41 8 40.8 8.2 40.6c0.2-0.2 0.2-0.4 0.2-0.7 0-0.2-0.2-0.5-0.4-0.6-0.2-0.2-0.7-0.5-1.1-0.9 0-0.1 0.1-0.2 0.1-0.2 0.1-0.3 0.3-0.5 0.5-0.9 0.3-0.6 0.4-1.4 0.2-2.1-0.2-1.1-1.3-1.7-2.1-2.1-0.3-0.1-0.5-0.3-0.8-0.4-0.2-0.1-0.4-0.3-0.5-0.4 0-0.1 0.1-0.5 0.8-1.3 1.6-2.1 3-4.4 4.2-6.8 0.2-0.4 0.3-0.8 0.4-1.2-0.1-0.9-0.6-1.8-1.3-2.3-0.4-0.3-0.7-0.7-0.8-1 0-0.2 0.1-0.4 0.1-0.6 0.1-0.4 0.3-0.8 0.5-1.2 0.4-0.8 0.7-1.6 0.9-2.4l0.1-0.4c0.2-0.9 0.4-1.8 0.7-2.7 0.7-2 1.8-3.8 3.3-5.4 1.8-1.9 4.5-3.2 8.2-3.9 2.8-0.6 5.7-1 8.6-1.2 1.4-0.1 2.9 0 4.3 0.2 0.5 0.1 1-0.3 1-0.7s-0.2-1-0.7-1.1C33.2 0 31.6-0.1 30 0c-3 0.2-5.9 0.6-8.9 1.3C17 2.1 14 3.6 12 5.7c-1.6 1.7-2.9 3.8-3.7 6-0.3 1-0.6 1.9-0.8 2.9l-0.1 0.4c-0.2 0.7-0.5 1.4-0.8 2.1-0.2 0.4-0.4 0.8-0.5 1.3-0.2 0.5-0.3 1-0.2 1.5 0.2 0.8 0.7 1.5 1.3 2 0.4 0.4 0.7 0.7 0.7 1 0 0.1-0.1 0.3-0.2 0.4-1.1 2.3-2.4 4.5-4 6.5-0.7 0.8-1.4 1.7-1.2 2.7C2.7 33.3 3.2 33.9 3.9 34.3z"/><path class="st3" d="M12.7 16.3l0.1-0.4c0.2-0.8 0.4-1.5 0.6-2.3 0.6-1.5 1.4-2.9 2.5-4.1 1.2-1.1 2.6-1.9 4.2-2.3 0.3-0.1 0.6-0.3 0.6-0.7 0.1-0.3 0-0.7-0.3-0.9-0.2-0.2-0.6-0.3-0.9-0.2-1.9 0.5-3.6 1.5-5 2.8-1.3 1.4-2.3 3-2.9 4.8-0.3 0.8-0.5 1.6-0.7 2.5L11 15.9c-0.1 0.5 0.2 1 0.7 1.1 0.1 0 0.1 0 0.2 0C12.3 17 12.6 16.7 12.7 16.3z"/><circle class="st3" cx="11.8" cy="20.3" r="0.9"/><path class="st5" d="M27.3 18.5c-0.1 3.1 1 6.2 3.1 8.5 0.6 0.7 1.4 1.3 2.1 1.8 1.3 1 2.6 2 2.9 3.4-1 0.4-1.7 1.4-1.7 2.6v1.8c0 1.2 0.7 2.2 1.8 2.6v0.2c0 2 1.6 3.7 3.7 3.7 2 0 3.7-1.6 3.7-3.7v-0.2c1.1-0.4 1.8-1.4 1.8-2.6v-1.8c0-1.1-0.7-2.1-1.7-2.6 0.3-1.4 1.6-2.4 2.9-3.4 0.8-0.5 1.5-1.2 2.1-1.8 2.1-2.4 3.2-5.4 3.1-8.5 0-6.6-5.3-12-11.9-12.1C32.6 6.6 27.3 11.9 27.3 18.5zM36.4 20.2h-0.9c-0.5 0-0.9-0.4-0.9-0.9 0-0.5 0.4-0.9 0.9-0.9s0.9 0.4 0.9 0.9V20.2zM40.1 32.1h-1.8V22h1.8V32.1zM39.2 41.3c-1 0-1.8-0.8-1.8-1.8H41C41 40.4 40.2 41.3 39.2 41.3zM42.8 36.7c0 0.5-0.4 0.9-0.9 0.9h-5.5c-0.5 0-0.9-0.4-0.9-0.9v-1.8c0-0.5 0.4-0.9 0.9-0.9h5.5c0.5 0 0.9 0.4 0.9 0.9V36.7zM49.2 18.6c0.1 2.7-0.9 5.2-2.6 7.3-0.6 0.6-1.2 1.1-1.9 1.6-1.1 0.8-2 1.7-2.8 2.7V22h0.9c1.5 0 2.7-1.2 2.7-2.7s-1.2-2.7-2.7-2.7c-1.5 0-2.7 1.2-2.7 2.7v0.9h-1.8v-0.9c0-1.5-1.2-2.7-2.7-2.7s-2.7 1.2-2.7 2.7S34 22 35.5 22h0.9v8.1c-0.8-1-1.8-2-2.8-2.7-0.7-0.5-1.3-1-1.9-1.6-1.7-2-2.7-4.6-2.6-7.3C29.2 13 33.8 8.3 39.2 8.3S49.2 13 49.2 18.6zM41.9 20.2v-0.9c0-0.5 0.4-0.9 0.9-0.9s0.9 0.4 0.9 0.9c0 0.5-0.4 0.9-0.9 0.9H41.9z"/><path class="st5" d="M53.8 19.3h2.7c0.5 0 0.9-0.4 0.9-0.9s-0.4-0.9-0.9-0.9h-2.7c-0.5 0-0.9 0.4-0.9 0.9S53.3 19.3 53.8 19.3z"/><path class="st5" d="M49.5 8.9c0.2 0 0.5-0.1 0.6-0.3l1.9-1.9c0.2-0.2 0.3-0.6 0.2-0.9S52 5.2 51.7 5.1c-0.3-0.1-0.7 0-0.9 0.2l-1.9 1.9c-0.3 0.3-0.3 0.7-0.2 1S49.2 8.9 49.5 8.9z"/><path class="st5" d="M39.2 4.6c0.5 0 0.9-0.4 0.9-0.9V0.9c0-0.5-0.4-0.9-0.9-0.9s-0.9 0.4-0.9 0.9v2.7C38.3 4.2 38.7 4.6 39.2 4.6z"/><path class="st5" d="M29.4 8.6c0.2-0.2 0.3-0.4 0.3-0.6 0-0.2-0.1-0.5-0.3-0.6l-1.9-1.9c-0.2-0.2-0.6-0.3-0.9-0.2C26.3 5.2 26 5.5 26 5.8c-0.1 0.3 0 0.7 0.2 0.9l1.9 1.9c0.2 0.2 0.4 0.3 0.6 0.3S29.3 8.8 29.4 8.6z"/><path class="st5" d="M21.8 17.4c-0.5 0-0.9 0.4-0.9 0.9s0.4 0.9 0.9 0.9h2.7c0.5 0 0.9-0.4 0.9-0.9s-0.4-0.9-0.9-0.9H21.8z"/></g></g></svg>