<svg id="main_blue_icons" data-name="main blue icons" xmlns="http://www.w3.org/2000/svg" viewBox="0 0 70 70"  width="73" height="83">
    <defs>
        <style>
            .cls-1 {
                fill: #fff;
            }

            .cls-2 {
                fill: #fff;
            }
        </style>
    </defs>
    <title>product development</title>
    <g id="product_development" data-name="product development">
        <g id="cloud_services" data-name="cloud services">
            <path class="cls-1" d="M24.41,31.61a2.3,2.3,0,1,1-2.29-2.29A2.13,2.13,0,0,1,24.41,31.61Z" />
            <path class="cls-1" d="M24.41,45.5a2.3,2.3,0,1,1-2.29-2.3A2.28,2.28,0,0,1,24.41,45.5Z" />
        </g>
        <path class="cls-1"
            d="M62.87,26.39A7.07,7.07,0,0,0,63,24.74a8,8,0,0,0-2.55-5.86,8.26,8.26,0,0,0-6-2.3A19.62,19.62,0,0,0,36.76.15,19.82,19.82,0,0,0,16.39,13a9.43,9.43,0,0,0-10.58,9.3,8.61,8.61,0,0,0,.39,2.54A11.71,11.71,0,0,0,.34,38a11.59,11.59,0,0,0,11.33,8.79h4.72V44.35H11.67A9.4,9.4,0,0,1,2.5,36.84,9.23,9.23,0,0,1,8.11,26.39a1.5,1.5,0,0,0,.63-.64,1.06,1.06,0,0,0,0-.89,6.67,6.67,0,0,1-.51-2.67,7.08,7.08,0,0,1,7-7,6.2,6.2,0,0,1,1.65.26,1.11,1.11,0,0,0,1.41-.77,17.44,17.44,0,0,1,34,3.19.87.87,0,0,0,.51.76,1.2,1.2,0,0,0,.89.26,3.15,3.15,0,0,1,1-.13,5.92,5.92,0,0,1,5.86,5.86,5.41,5.41,0,0,1-.38,2,1.38,1.38,0,0,0,0,1c.13.38.51.5.76.63a8.29,8.29,0,0,1,6.5,8.79,8.17,8.17,0,0,1-8.15,7.39H53.58v2.29h6a10.46,10.46,0,0,0,3.31-20.38Z" />
        <path class="cls-2" d="M22.12,29.32a2.3,2.3,0,1,0,2.29,2.29A2.13,2.13,0,0,0,22.12,29.32Z" />
        <path class="cls-2" d="M22.12,43.2a2.3,2.3,0,1,0,2.29,2.3A2.29,2.29,0,0,0,22.12,43.2Z" />
        <path class="cls-2"
            d="M58.93,56.07a3.6,3.6,0,0,0-4,2.29H44.28v-7H53.7a1.14,1.14,0,0,0,1.15-1.15V41a1.14,1.14,0,0,0-1.15-1.15H51.16V37.6h2.29a1.14,1.14,0,0,0,1.15-1.15V27.16A1.14,1.14,0,0,0,53.45,26H16.26a1.14,1.14,0,0,0-1.15,1.15v9.29a1.14,1.14,0,0,0,1.15,1.15h2.29v2.29H16.26a1,1,0,0,0-1.15,1v9.3a1.14,1.14,0,0,0,1.15,1.15h9.3v7H14.86a3.45,3.45,0,0,0-3.95-2.29,3.48,3.48,0,0,0,0,6.88,3.63,3.63,0,0,0,3.95-2.3H26.7a1.14,1.14,0,0,0,1.15-1.14V51.36h5.86V63.2a3.47,3.47,0,0,0-2.3,4A3.82,3.82,0,0,0,35,70.08a3.55,3.55,0,0,0,3.44-2.93,3.63,3.63,0,0,0-2.29-4V51.36H42v8.15a1.14,1.14,0,0,0,1.14,1.14H55a3.46,3.46,0,0,0,4,2.3,3.48,3.48,0,0,0,0-6.88ZM11.67,60.78a1.15,1.15,0,1,1,1.15-1.15A1.24,1.24,0,0,1,11.67,60.78ZM17.4,35.05v-7h35v7ZM49,37.35v2.29H21V37.35ZM35,67.79a1.15,1.15,0,1,1,1.15-1.15A1.24,1.24,0,0,1,35,67.79ZM17.4,49.06v-7h35v7ZM58.29,60.65a1.15,1.15,0,1,1,1.15-1.14A1.14,1.14,0,0,1,58.29,60.65Z" />
    </g>
</svg>