<svg width="316" height="40" viewBox="0 0 316 40" fill="none" xmlns="http://www.w3.org/2000/svg">
<path d="M28.5999 5H33.6599V36.24H28.5999V5Z" fill="white"/>
<path d="M51.2602 26.3411C51.2602 31.1811 47.3001 31.6211 45.9801 31.6211C42.9001 31.6211 42.4601 28.7611 42.4601 27.2211V15.1211H37.4001V27.0011C37.4001 29.8611 38.2801 32.5011 40.0401 34.0411C41.5801 35.5811 43.5601 36.2411 45.9801 36.2411C47.7401 36.2411 49.9402 35.8011 51.2602 34.4811V36.2411H56.3202V15.1211H51.2602V26.3411Z" fill="white"/>
<path d="M66.2199 7.41992H61.1599V15.1199H57.4199V19.9599H61.1599V36.2399H66.2199V19.9599H69.9599V15.1199H66.2199V7.41992Z" fill="white"/>
<path d="M85.8001 29.8597C84.7001 30.7397 83.1601 31.3997 81.6201 31.3997C78.1001 31.3997 75.6801 28.7597 75.6801 25.2397C75.6801 21.7197 78.1001 19.2997 81.6201 19.2997C83.1601 19.2997 84.7001 19.7397 85.8001 20.8397L86.4601 21.4997L89.9801 18.1997L89.1001 17.5397C87.1201 15.7797 84.4801 14.6797 81.6201 14.6797C75.4601 14.6797 70.8401 19.2997 70.8401 25.4597C70.8401 31.6197 75.4601 36.2397 81.6201 36.2397C84.4801 36.2397 87.1201 35.1397 89.1001 33.3797L89.9801 32.7197L86.4601 29.1997L85.8001 29.8597Z" fill="white"/>
<path d="M107.8 16.88C106.26 15.34 104.72 14.68 102.3 14.68C100.54 14.68 98.7801 15.12 97.4601 16.44V5H92.4001V36.24H97.4601V24.58C97.4601 19.74 100.76 19.3 102.08 19.3C105.16 19.3 104.94 22.16 104.94 23.7V36.02H110V23.92C110 21.06 109.34 18.42 107.8 16.88Z" fill="white"/>
<path d="M81.4001 28.9814C83.3442 28.9814 84.9201 27.4055 84.9201 25.4614C84.9201 23.5174 83.3442 21.9414 81.4001 21.9414C79.4561 21.9414 77.8801 23.5174 77.8801 25.4614C77.8801 27.4055 79.4561 28.9814 81.4001 28.9814Z" fill="white"/>
<path d="M21.56 28.5391C19.8 30.2991 17.16 31.3991 14.3 31.3991C8.8 31.3991 4.84 26.9991 4.84 21.0591C4.84 15.1191 8.8 10.7191 14.52 10.7191C17.16 10.7191 19.8 11.8191 21.78 13.7991L22.44 14.4591L25.74 11.1591L25.08 10.4991C22.22 7.63909 18.48 6.09909 14.52 6.09909C6.16 5.87909 0 12.4791 0 21.0591C0 29.6391 6.16 36.2391 14.3 36.2391C18.26 36.2391 22.22 34.6991 24.86 31.8391L25.52 31.1791L22.22 27.8791L21.56 28.5391Z" fill="white"/>
<path d="M166.958 16.1963H165.227V19H163.214V16.1963H157.343V14.6055L163.214 6.11523H165.227V14.4824H166.958V16.1963ZM163.214 14.4824V11.2568C163.214 10.1084 163.243 9.16797 163.302 8.43555H163.231C163.067 8.82227 162.81 9.29102 162.458 9.8418L159.268 14.4824H163.214ZM168.452 17.9014C168.452 17.4736 168.563 17.1455 168.786 16.917C169.009 16.6885 169.331 16.5742 169.753 16.5742C170.181 16.5742 170.506 16.6943 170.729 16.9346C170.951 17.1689 171.062 17.4912 171.062 17.9014C171.062 18.3174 170.948 18.6484 170.72 18.8945C170.497 19.1348 170.175 19.2549 169.753 19.2549C169.331 19.2549 169.009 19.1348 168.786 18.8945C168.563 18.6543 168.452 18.3232 168.452 17.9014ZM181.724 11.6348C181.724 14.166 181.214 16.0557 180.194 17.3037C179.175 18.5518 177.64 19.1758 175.589 19.1758C174.81 19.1758 174.25 19.1289 173.91 19.0352V17.3037C174.432 17.4502 174.956 17.5234 175.483 17.5234C176.878 17.5234 177.918 17.1484 178.604 16.3984C179.289 15.6484 179.664 14.4707 179.729 12.8652H179.623C179.277 13.3926 178.858 13.7734 178.366 14.0078C177.88 14.2422 177.309 14.3594 176.652 14.3594C175.516 14.3594 174.622 14.0049 173.972 13.2959C173.321 12.5869 172.996 11.6143 172.996 10.3779C172.996 9.03613 173.371 7.96973 174.121 7.17871C174.877 6.38184 175.905 5.9834 177.206 5.9834C178.12 5.9834 178.917 6.20605 179.597 6.65137C180.276 7.09668 180.801 7.74414 181.17 8.59375C181.539 9.4375 181.724 10.4512 181.724 11.6348ZM177.241 7.69727C176.526 7.69727 175.979 7.93164 175.598 8.40039C175.217 8.86328 175.026 9.5166 175.026 10.3604C175.026 11.0928 175.202 11.6699 175.554 12.0918C175.911 12.5078 176.45 12.7158 177.171 12.7158C177.868 12.7158 178.454 12.5078 178.929 12.0918C179.403 11.6758 179.641 11.1895 179.641 10.6328C179.641 10.1113 179.538 9.625 179.333 9.17383C179.134 8.7168 178.853 8.35645 178.489 8.09277C178.126 7.8291 177.71 7.69727 177.241 7.69727ZM189.396 6.15039L184.615 19H182.664L187.454 6.15039H189.396ZM194.705 10.9756C196 10.9756 197.025 11.3184 197.781 12.0039C198.537 12.6895 198.915 13.624 198.915 14.8076C198.915 16.1787 198.484 17.251 197.623 18.0244C196.768 18.792 195.549 19.1758 193.967 19.1758C192.531 19.1758 191.403 18.9443 190.583 18.4814V16.6094C191.058 16.8789 191.603 17.0869 192.218 17.2334C192.833 17.3799 193.404 17.4531 193.932 17.4531C194.863 17.4531 195.572 17.2451 196.059 16.8291C196.545 16.4131 196.788 15.8037 196.788 15.001C196.788 13.4658 195.81 12.6982 193.853 12.6982C193.577 12.6982 193.237 12.7275 192.833 12.7861C192.429 12.8389 192.074 12.9004 191.77 12.9707L190.847 12.4258L191.339 6.15039H198.019V7.9873H193.158L192.868 11.1689C193.073 11.1338 193.322 11.0928 193.615 11.0459C193.914 10.999 194.277 10.9756 194.705 10.9756ZM201.007 17.9014C201.007 17.4736 201.118 17.1455 201.341 16.917C201.563 16.6885 201.886 16.5742 202.308 16.5742C202.735 16.5742 203.061 16.6943 203.283 16.9346C203.506 17.1689 203.617 17.4912 203.617 17.9014C203.617 18.3174 203.503 18.6484 203.274 18.8945C203.052 19.1348 202.729 19.2549 202.308 19.2549C201.886 19.2549 201.563 19.1348 201.341 18.8945C201.118 18.6543 201.007 18.3232 201.007 17.9014ZM214.296 12.5752C214.296 14.8076 213.936 16.4658 213.215 17.5498C212.5 18.6338 211.404 19.1758 209.928 19.1758C208.498 19.1758 207.414 18.6162 206.676 17.4971C205.938 16.3779 205.568 14.7373 205.568 12.5752C205.568 10.3076 205.926 8.6377 206.641 7.56543C207.361 6.4873 208.457 5.94824 209.928 5.94824C211.363 5.94824 212.45 6.51074 213.188 7.63574C213.927 8.76074 214.296 10.4072 214.296 12.5752ZM207.66 12.5752C207.66 14.3271 207.839 15.5781 208.196 16.3281C208.56 17.0781 209.137 17.4531 209.928 17.4531C210.719 17.4531 211.296 17.0723 211.659 16.3105C212.028 15.5488 212.213 14.3037 212.213 12.5752C212.213 10.8525 212.028 9.60742 211.659 8.83984C211.296 8.06641 210.719 7.67969 209.928 7.67969C209.137 7.67969 208.56 8.05762 208.196 8.81348C207.839 9.56934 207.66 10.8232 207.66 12.5752Z" fill="white"/>
<g clip-path="url(#clip0_303_25)">
<path d="M239.575 9.72205L234.657 8.97072L232.452 4.27472C232.287 3.92405 231.712 3.92405 231.547 4.27472L229.343 8.97072L224.425 9.72205C224.021 9.78405 223.859 10.2754 224.143 10.5654L227.716 14.2281L226.871 19.4061C226.804 19.8174 227.243 20.1261 227.607 19.9241L232 17.4961L236.393 19.9247C236.753 20.1247 237.197 19.8221 237.129 19.4067L236.284 14.2287L239.857 10.5661C240.141 10.2754 239.979 9.78405 239.575 9.72205V9.72205Z" fill="#F6CB36"/>
</g>
<g clip-path="url(#clip1_303_25)">
<path d="M258.575 9.72205L253.657 8.97072L251.452 4.27472C251.287 3.92405 250.712 3.92405 250.547 4.27472L248.343 8.97072L243.425 9.72205C243.021 9.78405 242.859 10.2754 243.143 10.5654L246.716 14.2281L245.871 19.4061C245.804 19.8174 246.243 20.1261 246.607 19.9241L251 17.4961L255.393 19.9247C255.753 20.1247 256.197 19.8221 256.129 19.4067L255.284 14.2287L258.857 10.5661C259.141 10.2754 258.979 9.78405 258.575 9.72205V9.72205Z" fill="#F6CB36"/>
</g>
<g clip-path="url(#clip2_303_25)">
<path d="M277.575 9.72205L272.657 8.97072L270.452 4.27472C270.287 3.92405 269.712 3.92405 269.547 4.27472L267.343 8.97072L262.425 9.72205C262.021 9.78405 261.859 10.2754 262.143 10.5654L265.716 14.2281L264.871 19.4061C264.804 19.8174 265.243 20.1261 265.607 19.9241L270 17.4961L274.393 19.9247C274.753 20.1247 275.197 19.8221 275.129 19.4067L274.284 14.2287L277.857 10.5661C278.141 10.2754 277.979 9.78405 277.575 9.72205V9.72205Z" fill="#F6CB36"/>
</g>
<g clip-path="url(#clip3_303_25)">
<path d="M296.575 9.72205L291.657 8.97072L289.452 4.27472C289.287 3.92405 288.712 3.92405 288.547 4.27472L286.343 8.97072L281.425 9.72205C281.021 9.78405 280.859 10.2754 281.143 10.5654L284.716 14.2281L283.871 19.4061C283.804 19.8174 284.243 20.1261 284.607 19.9241L289 17.4961L293.393 19.9247C293.753 20.1247 294.197 19.8221 294.129 19.4067L293.284 14.2287L296.857 10.5661C297.141 10.2754 296.979 9.78405 296.575 9.72205V9.72205Z" fill="#F6CB36"/>
</g>
<g clip-path="url(#clip4_303_25)">
<path d="M315.575 9.72205L310.657 8.97072L308.452 4.27472C308.287 3.92405 307.712 3.92405 307.547 4.27472L305.343 8.97072L300.425 9.72205C300.021 9.78405 299.859 10.2754 300.143 10.5654L303.716 14.2281L302.871 19.4061C302.804 19.8174 303.243 20.1261 303.607 19.9241L308 17.4961L312.393 19.9247C312.753 20.1247 313.197 19.8221 313.129 19.4067L312.284 14.2287L315.857 10.5661C316.141 10.2754 315.979 9.78405 315.575 9.72205V9.72205Z" fill="#F6CB36"/>
</g>
<path d="M125.472 25.292H128.497C129.918 25.292 130.946 25.5044 131.581 25.9292C132.215 26.354 132.533 27.0254 132.533 27.9434C132.533 28.5781 132.354 29.103 131.998 29.5181C131.646 29.9282 131.131 30.1943 130.453 30.3164V30.3896C132.079 30.668 132.892 31.5225 132.892 32.9531C132.892 33.9102 132.567 34.6572 131.917 35.1943C131.273 35.7314 130.37 36 129.208 36H125.472V25.292ZM126.717 29.877H128.768C129.647 29.877 130.279 29.7402 130.665 29.4668C131.051 29.1885 131.244 28.7222 131.244 28.0679C131.244 27.4673 131.029 27.0352 130.599 26.7715C130.169 26.5029 129.486 26.3687 128.548 26.3687H126.717V29.877ZM126.717 30.9316V34.938H128.951C129.815 34.938 130.465 34.772 130.899 34.4399C131.339 34.103 131.559 33.5781 131.559 32.8652C131.559 32.2012 131.334 31.7129 130.885 31.4004C130.44 31.0879 129.762 30.9316 128.849 30.9316H126.717ZM139.952 36L139.71 34.8574H139.652C139.251 35.3604 138.851 35.7021 138.451 35.8828C138.055 36.0586 137.56 36.1465 136.964 36.1465C136.168 36.1465 135.543 35.9414 135.089 35.5312C134.64 35.1211 134.415 34.5376 134.415 33.7808C134.415 32.1597 135.711 31.3101 138.304 31.2319L139.667 31.188V30.6899C139.667 30.0601 139.53 29.5962 139.256 29.2983C138.988 28.9956 138.556 28.8442 137.96 28.8442C137.291 28.8442 136.534 29.0493 135.689 29.4595L135.316 28.5293C135.711 28.3145 136.144 28.146 136.612 28.0239C137.086 27.9019 137.56 27.8408 138.033 27.8408C138.99 27.8408 139.698 28.0532 140.157 28.478C140.621 28.9028 140.853 29.584 140.853 30.5215V36H139.952ZM137.206 35.1431C137.962 35.1431 138.556 34.9355 138.985 34.5205C139.42 34.1055 139.637 33.5244 139.637 32.7773V32.0522L138.421 32.1035C137.455 32.1377 136.756 32.2891 136.327 32.5576C135.902 32.8213 135.689 33.2339 135.689 33.7954C135.689 34.2349 135.821 34.5693 136.085 34.7988C136.354 35.0283 136.727 35.1431 137.206 35.1431ZM148.543 33.8101C148.543 34.5571 148.265 35.1333 147.708 35.5386C147.152 35.9438 146.371 36.1465 145.365 36.1465C144.3 36.1465 143.47 35.978 142.875 35.6411V34.5132C143.26 34.7085 143.673 34.8623 144.112 34.9746C144.557 35.0869 144.984 35.1431 145.394 35.1431C146.029 35.1431 146.517 35.043 146.859 34.8428C147.201 34.6377 147.372 34.3276 147.372 33.9126C147.372 33.6001 147.235 33.334 146.961 33.1143C146.693 32.8896 146.166 32.626 145.379 32.3232C144.632 32.0449 144.1 31.8032 143.783 31.5981C143.47 31.3882 143.236 31.1514 143.08 30.8877C142.928 30.624 142.853 30.3091 142.853 29.9429C142.853 29.2886 143.119 28.7734 143.651 28.3975C144.183 28.0166 144.913 27.8262 145.841 27.8262C146.705 27.8262 147.55 28.002 148.375 28.3535L147.943 29.3423C147.137 29.0103 146.407 28.8442 145.753 28.8442C145.177 28.8442 144.742 28.9346 144.449 29.1152C144.156 29.2959 144.01 29.5449 144.01 29.8623C144.01 30.0771 144.063 30.2603 144.171 30.4116C144.283 30.563 144.461 30.707 144.706 30.8438C144.95 30.9805 145.418 31.1782 146.112 31.437C147.064 31.7837 147.706 32.1328 148.038 32.4844C148.375 32.8359 148.543 33.2778 148.543 33.8101ZM153.919 36.1465C152.733 36.1465 151.795 35.7852 151.107 35.0625C150.423 34.3398 150.082 33.3364 150.082 32.0522C150.082 30.7583 150.399 29.7305 151.034 28.9688C151.673 28.207 152.53 27.8262 153.604 27.8262C154.61 27.8262 155.406 28.1582 155.992 28.8223C156.578 29.4814 156.871 30.353 156.871 31.437V32.2061H151.341C151.366 33.1484 151.603 33.8638 152.052 34.3521C152.506 34.8403 153.143 35.0845 153.963 35.0845C154.828 35.0845 155.682 34.9038 156.527 34.5425V35.6265C156.097 35.812 155.689 35.9438 155.304 36.022C154.923 36.105 154.461 36.1465 153.919 36.1465ZM153.59 28.8442C152.945 28.8442 152.43 29.0542 152.044 29.4741C151.664 29.894 151.439 30.4751 151.371 31.2173H155.567C155.567 30.4507 155.396 29.8647 155.055 29.4595C154.713 29.0493 154.225 28.8442 153.59 28.8442ZM164.415 34.9233H164.349C163.788 35.7388 162.948 36.1465 161.83 36.1465C160.78 36.1465 159.962 35.7876 159.376 35.0698C158.795 34.3521 158.504 33.3315 158.504 32.0083C158.504 30.6851 158.797 29.6572 159.383 28.9248C159.969 28.1924 160.785 27.8262 161.83 27.8262C162.918 27.8262 163.753 28.2217 164.334 29.0127H164.43L164.378 28.4341L164.349 27.8701V24.6035H165.565V36H164.576L164.415 34.9233ZM161.983 35.1284C162.813 35.1284 163.414 34.9038 163.785 34.4546C164.161 34.0005 164.349 33.2705 164.349 32.2646V32.0083C164.349 30.8706 164.159 30.0601 163.778 29.5767C163.402 29.0884 162.799 28.8442 161.969 28.8442C161.256 28.8442 160.709 29.1226 160.328 29.6792C159.952 30.231 159.764 31.0122 159.764 32.0229C159.764 33.0483 159.952 33.8223 160.328 34.3447C160.704 34.8672 161.256 35.1284 161.983 35.1284ZM178.976 31.979C178.976 33.2876 178.646 34.3105 177.987 35.0479C177.328 35.7803 176.417 36.1465 175.255 36.1465C174.537 36.1465 173.9 35.978 173.343 35.6411C172.787 35.3042 172.357 34.8208 172.054 34.1909C171.751 33.561 171.6 32.8237 171.6 31.979C171.6 30.6704 171.927 29.6523 172.582 28.9248C173.236 28.1924 174.144 27.8262 175.306 27.8262C176.429 27.8262 177.32 28.1997 177.979 28.9468C178.644 29.6938 178.976 30.7046 178.976 31.979ZM172.86 31.979C172.86 33.0044 173.065 33.7856 173.475 34.3228C173.885 34.8599 174.488 35.1284 175.284 35.1284C176.08 35.1284 176.683 34.8623 177.093 34.3301C177.508 33.793 177.716 33.0093 177.716 31.979C177.716 30.9585 177.508 30.1846 177.093 29.6572C176.683 29.125 176.075 28.8589 175.27 28.8589C174.474 28.8589 173.873 29.1201 173.468 29.6426C173.062 30.165 172.86 30.9438 172.86 31.979ZM186.607 36V30.8071C186.607 30.1528 186.458 29.6646 186.161 29.3423C185.863 29.02 185.396 28.8589 184.762 28.8589C183.922 28.8589 183.307 29.0859 182.916 29.54C182.525 29.9941 182.33 30.7437 182.33 31.7886V36H181.114V27.9727H182.103L182.301 29.0713H182.359C182.608 28.6758 182.958 28.3706 183.407 28.1558C183.856 27.936 184.356 27.8262 184.908 27.8262C185.875 27.8262 186.603 28.0605 187.091 28.5293C187.579 28.9932 187.823 29.7378 187.823 30.7632V36H186.607ZM200.304 27.8115C200.304 28.4951 200.111 29.0542 199.725 29.4888C199.344 29.9233 198.802 30.2139 198.099 30.3604V30.4189C198.958 30.5264 199.596 30.7998 200.011 31.2393C200.426 31.6787 200.633 32.2549 200.633 32.9678C200.633 33.9883 200.279 34.7744 199.571 35.3262C198.863 35.873 197.857 36.1465 196.554 36.1465C195.987 36.1465 195.467 36.1025 194.994 36.0146C194.525 35.9316 194.068 35.7827 193.624 35.5679V34.4106C194.088 34.6401 194.581 34.8159 195.104 34.938C195.631 35.0552 196.129 35.1138 196.598 35.1138C198.448 35.1138 199.374 34.3887 199.374 32.9385C199.374 31.6396 198.353 30.9902 196.312 30.9902H195.257V29.9429H196.327C197.162 29.9429 197.823 29.7598 198.312 29.3936C198.8 29.0225 199.044 28.5098 199.044 27.8555C199.044 27.333 198.863 26.9229 198.502 26.625C198.146 26.3271 197.66 26.1782 197.044 26.1782C196.576 26.1782 196.134 26.2417 195.719 26.3687C195.304 26.4956 194.83 26.73 194.298 27.0718L193.683 26.2515C194.122 25.9048 194.627 25.6338 195.199 25.4385C195.775 25.2383 196.38 25.1382 197.015 25.1382C198.055 25.1382 198.863 25.3774 199.439 25.856C200.016 26.3296 200.304 26.9814 200.304 27.8115ZM202.376 31.4224C202.376 29.3179 202.784 27.7456 203.6 26.7056C204.42 25.6606 205.631 25.1382 207.232 25.1382C207.784 25.1382 208.219 25.1846 208.536 25.2773V26.3247C208.16 26.2026 207.73 26.1416 207.247 26.1416C206.1 26.1416 205.223 26.5005 204.618 27.2183C204.012 27.9312 203.68 29.0542 203.622 30.5874H203.709C204.247 29.7476 205.096 29.3276 206.258 29.3276C207.22 29.3276 207.977 29.6182 208.529 30.1992C209.085 30.7803 209.364 31.5688 209.364 32.5649C209.364 33.6782 209.059 34.5547 208.448 35.1943C207.843 35.8291 207.022 36.1465 205.987 36.1465C204.879 36.1465 204 35.7314 203.351 34.9014C202.701 34.0664 202.376 32.9067 202.376 31.4224ZM205.973 35.1138C206.666 35.1138 207.203 34.8965 207.584 34.4619C207.97 34.0225 208.163 33.3901 208.163 32.5649C208.163 31.8569 207.984 31.3003 207.628 30.895C207.271 30.4897 206.739 30.2871 206.031 30.2871C205.592 30.2871 205.189 30.3774 204.823 30.5581C204.457 30.7388 204.164 30.9878 203.944 31.3052C203.729 31.6226 203.622 31.9521 203.622 32.2939C203.622 32.7969 203.719 33.2656 203.915 33.7002C204.11 34.1348 204.386 34.479 204.742 34.7329C205.104 34.9868 205.514 35.1138 205.973 35.1138ZM218.497 36.1465C217.335 36.1465 216.434 35.79 215.794 35.0771C215.16 34.3594 214.842 33.3462 214.842 32.0376C214.842 30.6948 215.165 29.6572 215.809 28.9248C216.458 28.1924 217.381 27.8262 218.578 27.8262C218.963 27.8262 219.349 27.8677 219.735 27.9507C220.121 28.0337 220.423 28.1313 220.643 28.2437L220.27 29.2764C220.001 29.1689 219.708 29.0811 219.391 29.0127C219.073 28.9395 218.792 28.9028 218.548 28.9028C216.917 28.9028 216.102 29.9429 216.102 32.0229C216.102 33.0093 216.3 33.7661 216.695 34.2935C217.096 34.8208 217.687 35.0845 218.468 35.0845C219.137 35.0845 219.823 34.9404 220.526 34.6523V35.729C219.989 36.0073 219.312 36.1465 218.497 36.1465ZM223.653 36H222.438V24.6035H223.653V36ZM227.447 36H226.231V27.9727H227.447V36ZM226.129 25.7974C226.129 25.519 226.197 25.3164 226.334 25.1895C226.471 25.0576 226.642 24.9917 226.847 24.9917C227.042 24.9917 227.21 25.0576 227.352 25.1895C227.494 25.3213 227.564 25.5239 227.564 25.7974C227.564 26.0708 227.494 26.2759 227.352 26.4126C227.21 26.5444 227.042 26.6104 226.847 26.6104C226.642 26.6104 226.471 26.5444 226.334 26.4126C226.197 26.2759 226.129 26.0708 226.129 25.7974ZM233.417 36.1465C232.23 36.1465 231.292 35.7852 230.604 35.0625C229.92 34.3398 229.579 33.3364 229.579 32.0522C229.579 30.7583 229.896 29.7305 230.531 28.9688C231.17 28.207 232.027 27.8262 233.102 27.8262C234.107 27.8262 234.903 28.1582 235.489 28.8223C236.075 29.4814 236.368 30.353 236.368 31.437V32.2061H230.838C230.863 33.1484 231.1 33.8638 231.549 34.3521C232.003 34.8403 232.64 35.0845 233.46 35.0845C234.325 35.0845 235.179 34.9038 236.024 34.5425V35.6265C235.594 35.812 235.187 35.9438 234.801 36.022C234.42 36.105 233.958 36.1465 233.417 36.1465ZM233.087 28.8442C232.442 28.8442 231.927 29.0542 231.542 29.4741C231.161 29.894 230.936 30.4751 230.868 31.2173H235.064C235.064 30.4507 234.894 29.8647 234.552 29.4595C234.21 29.0493 233.722 28.8442 233.087 28.8442ZM243.941 36V30.8071C243.941 30.1528 243.792 29.6646 243.495 29.3423C243.197 29.02 242.73 28.8589 242.096 28.8589C241.256 28.8589 240.641 29.0859 240.25 29.54C239.859 29.9941 239.664 30.7437 239.664 31.7886V36H238.448V27.9727H239.437L239.635 29.0713H239.693C239.942 28.6758 240.292 28.3706 240.741 28.1558C241.19 27.936 241.69 27.8262 242.242 27.8262C243.209 27.8262 243.937 28.0605 244.425 28.5293C244.913 28.9932 245.157 29.7378 245.157 30.7632V36H243.941ZM250.255 35.1431C250.47 35.1431 250.677 35.1284 250.877 35.0991C251.078 35.0649 251.236 35.0308 251.354 34.9966V35.9268C251.222 35.9902 251.026 36.0415 250.768 36.0806C250.514 36.1245 250.284 36.1465 250.079 36.1465C248.526 36.1465 247.75 35.3286 247.75 33.6929V28.9175H246.6V28.3315L247.75 27.8262L248.263 26.1123H248.966V27.9727H251.295V28.9175H248.966V33.6416C248.966 34.125 249.081 34.4961 249.31 34.7549C249.54 35.0137 249.854 35.1431 250.255 35.1431ZM258.143 33.8101C258.143 34.5571 257.865 35.1333 257.308 35.5386C256.751 35.9438 255.97 36.1465 254.964 36.1465C253.9 36.1465 253.07 35.978 252.474 35.6411V34.5132C252.86 34.7085 253.272 34.8623 253.712 34.9746C254.156 35.0869 254.583 35.1431 254.994 35.1431C255.628 35.1431 256.117 35.043 256.458 34.8428C256.8 34.6377 256.971 34.3276 256.971 33.9126C256.971 33.6001 256.834 33.334 256.561 33.1143C256.292 32.8896 255.765 32.626 254.979 32.3232C254.232 32.0449 253.7 31.8032 253.382 31.5981C253.07 31.3882 252.835 31.1514 252.679 30.8877C252.528 30.624 252.452 30.3091 252.452 29.9429C252.452 29.2886 252.718 28.7734 253.25 28.3975C253.783 28.0166 254.513 27.8262 255.44 27.8262C256.305 27.8262 257.149 28.002 257.975 28.3535L257.542 29.3423C256.737 29.0103 256.007 28.8442 255.353 28.8442C254.776 28.8442 254.342 28.9346 254.049 29.1152C253.756 29.2959 253.609 29.5449 253.609 29.8623C253.609 30.0771 253.663 30.2603 253.771 30.4116C253.883 30.563 254.061 30.707 254.305 30.8438C254.549 30.9805 255.018 31.1782 255.711 31.437C256.664 31.7837 257.306 32.1328 257.638 32.4844C257.975 32.8359 258.143 33.2778 258.143 33.8101ZM267.687 27.8262C268.043 27.8262 268.363 27.8555 268.646 27.9141L268.478 29.042C268.146 28.9688 267.853 28.9321 267.599 28.9321C266.949 28.9321 266.393 29.1958 265.929 29.7231C265.47 30.2505 265.24 30.9072 265.24 31.6934V36H264.024V27.9727H265.028L265.167 29.4595H265.226C265.523 28.937 265.882 28.5342 266.302 28.251C266.722 27.9678 267.184 27.8262 267.687 27.8262ZM273.539 36.1465C272.352 36.1465 271.415 35.7852 270.726 35.0625C270.042 34.3398 269.701 33.3364 269.701 32.0522C269.701 30.7583 270.018 29.7305 270.653 28.9688C271.292 28.207 272.149 27.8262 273.224 27.8262C274.229 27.8262 275.025 28.1582 275.611 28.8223C276.197 29.4814 276.49 30.353 276.49 31.437V32.2061H270.96C270.985 33.1484 271.222 33.8638 271.671 34.3521C272.125 34.8403 272.762 35.0845 273.583 35.0845C274.447 35.0845 275.301 34.9038 276.146 34.5425V35.6265C275.716 35.812 275.309 35.9438 274.923 36.022C274.542 36.105 274.081 36.1465 273.539 36.1465ZM273.209 28.8442C272.564 28.8442 272.049 29.0542 271.664 29.4741C271.283 29.894 271.058 30.4751 270.99 31.2173H275.187C275.187 30.4507 275.016 29.8647 274.674 29.4595C274.332 29.0493 273.844 28.8442 273.209 28.8442ZM280.328 36L277.281 27.9727H278.585L280.313 32.7334C280.704 33.8467 280.934 34.5693 281.002 34.9014H281.061C281.114 34.6426 281.283 34.1079 281.566 33.2974C281.854 32.4819 282.496 30.707 283.492 27.9727H284.796L281.749 36H280.328ZM287.301 36H286.085V27.9727H287.301V36ZM285.982 25.7974C285.982 25.519 286.051 25.3164 286.188 25.1895C286.324 25.0576 286.495 24.9917 286.7 24.9917C286.896 24.9917 287.064 25.0576 287.206 25.1895C287.347 25.3213 287.418 25.5239 287.418 25.7974C287.418 26.0708 287.347 26.2759 287.206 26.4126C287.064 26.5444 286.896 26.6104 286.7 26.6104C286.495 26.6104 286.324 26.5444 286.188 26.4126C286.051 26.2759 285.982 26.0708 285.982 25.7974ZM293.27 36.1465C292.083 36.1465 291.146 35.7852 290.458 35.0625C289.774 34.3398 289.432 33.3364 289.432 32.0522C289.432 30.7583 289.75 29.7305 290.384 28.9688C291.024 28.207 291.881 27.8262 292.955 27.8262C293.961 27.8262 294.757 28.1582 295.343 28.8223C295.929 29.4814 296.222 30.353 296.222 31.437V32.2061H290.692C290.716 33.1484 290.953 33.8638 291.402 34.3521C291.856 34.8403 292.494 35.0845 293.314 35.0845C294.178 35.0845 295.033 34.9038 295.877 34.5425V35.6265C295.448 35.812 295.04 35.9438 294.654 36.022C294.273 36.105 293.812 36.1465 293.27 36.1465ZM292.94 28.8442C292.296 28.8442 291.781 29.0542 291.395 29.4741C291.014 29.894 290.79 30.4751 290.721 31.2173H294.918C294.918 30.4507 294.747 29.8647 294.405 29.4595C294.063 29.0493 293.575 28.8442 292.94 28.8442ZM304.857 36L303.385 31.2905C303.292 31.0024 303.119 30.3481 302.865 29.3276H302.806C302.611 30.1821 302.44 30.8413 302.293 31.3052L300.777 36H299.371L297.181 27.9727H298.456C298.973 29.9893 299.366 31.5249 299.635 32.5796C299.908 33.6343 300.064 34.3447 300.104 34.7109H300.162C300.216 34.4326 300.301 34.0737 300.418 33.6343C300.541 33.1899 300.646 32.8384 300.733 32.5796L302.206 27.9727H303.524L304.959 32.5796C305.233 33.4194 305.418 34.125 305.516 34.6963H305.575C305.594 34.5205 305.646 34.2495 305.729 33.8833C305.816 33.5171 306.327 31.5469 307.259 27.9727H308.519L306.3 36H304.857ZM315.155 33.8101C315.155 34.5571 314.876 35.1333 314.32 35.5386C313.763 35.9438 312.982 36.1465 311.976 36.1465C310.912 36.1465 310.082 35.978 309.486 35.6411V34.5132C309.872 34.7085 310.284 34.8623 310.724 34.9746C311.168 35.0869 311.595 35.1431 312.005 35.1431C312.64 35.1431 313.128 35.043 313.47 34.8428C313.812 34.6377 313.983 34.3276 313.983 33.9126C313.983 33.6001 313.846 33.334 313.573 33.1143C313.304 32.8896 312.777 32.626 311.991 32.3232C311.244 32.0449 310.711 31.8032 310.394 31.5981C310.082 31.3882 309.847 31.1514 309.691 30.8877C309.54 30.624 309.464 30.3091 309.464 29.9429C309.464 29.2886 309.73 28.7734 310.262 28.3975C310.794 28.0166 311.524 27.8262 312.452 27.8262C313.316 27.8262 314.161 28.002 314.986 28.3535L314.554 29.3423C313.749 29.0103 313.019 28.8442 312.364 28.8442C311.788 28.8442 311.354 28.9346 311.061 29.1152C310.768 29.2959 310.621 29.5449 310.621 29.8623C310.621 30.0771 310.675 30.2603 310.782 30.4116C310.895 30.563 311.073 30.707 311.317 30.8438C311.561 30.9805 312.03 31.1782 312.723 31.437C313.675 31.7837 314.317 32.1328 314.649 32.4844C314.986 32.8359 315.155 33.2778 315.155 33.8101Z" fill="white"/>
<defs>
<clipPath id="clip0_303_25">
<rect width="16" height="16" fill="white" transform="translate(224 4)"/>
</clipPath>
<clipPath id="clip1_303_25">
<rect width="16" height="16" fill="white" transform="translate(243 4)"/>
</clipPath>
<clipPath id="clip2_303_25">
<rect width="16" height="16" fill="white" transform="translate(262 4)"/>
</clipPath>
<clipPath id="clip3_303_25">
<rect width="16" height="16" fill="white" transform="translate(281 4)"/>
</clipPath>
<clipPath id="clip4_303_25">
<rect width="16" height="16" fill="white" transform="translate(300 4)"/>
</clipPath>
</defs>
</svg>
