<svg xmlns="http://www.w3.org/2000/svg" viewBox="0 0 100 100" width="73" height="83"><g fill="#fff"><path d="m3.5 63.3c0.5 0.4 1.1 0.7 1.7 1 0.7 0.4 1.9 1 2 1.4 0.1 0.6 0 1.2-0.2 1.7-0.2 0.5-0.5 1-0.7 1.4-0.6 1.1-1.6 2.9-0.1 4.1 0.4 0.3 1 0.8 1.5 1.3-0.4 0.7-0.6 1.6-0.5 2.4 0.1 0.7 0.4 1.3 1 1.6 0.4 0.3 0.8 0.5 1.2 0.7 1 0.6 1.4 0.8 1.5 1.3 0.1 0.7 0 1.4-0.2 2-0.1 0.4-0.2 0.9-0.2 1.3-0.2 1.5 0 3.1 0.5 4.5 0.7 2.6 3.1 4.5 5.9 4.5 0.5 0 0.9 0 1.4-0.1 4.8-1.1 9.5-2.5 14.1-4.2 3.8 2.2 6.1 8.9 6.7 11.4 0.2 0.7 0.9 1.3 1.6 1.3l41.8-0.1c0.5 0 1-0.3 1.3-0.7s0.4-1 0.2-1.5c-0.4-1.1-1-2.2-1.7-3.2-0.4-0.6-0.8-1.2-1.1-1.8-0.8-1.5-1.4-3.1-1.9-4.7-0.9-3.2-1.6-6.4-2-9.7-0.1-0.6-0.4-1.1-1-1.4-0.6-0.2-1.2-0.2-1.7 0.2s-0.7 1-0.6 1.6c0.4 3.5 1.1 7 2.1 10.3 0.5 1.8 1.2 3.5 2.1 5.2 0.4 0.8 0.8 1.5 1.3 2.2l0.1 0.2-37.8 0.1c-1.1-4-3.1-7.6-5.9-10.6l1.5-0.5c1.1-0.4 2-0.7 2.4-0.8 7.1-2.3 10.7-5.5 10.6-9.7 0-0.4-0.2-0.9-0.5-1.2-0.3-0.3-0.8-0.5-1.2-0.4-0.9 0-1.6 0.8-1.6 1.7 0 1.7-1.4 4.2-8.3 6.4-0.5 0.1-1.3 0.4-2.5 0.9-1.2 0.4-2.8 1-4.5 1.6h0c-4.7 1.7-9.5 3.2-14.3 4.3-1.6 0.3-3.1-0.7-3.4-2.2-0.4-0.9-0.5-2-0.4-3 0-0.3 0.1-0.7 0.2-1 0.3-1.2 0.4-2.4 0.1-3.5-0.5-1.5-1.6-2.8-3.1-3.4l-0.3-0.2c0.2-0.4 0.4-0.7 0.6-1 0.3-0.4 0.4-0.8 0.3-1.3s-0.3-0.9-0.7-1.1c-0.4-0.3-1.3-1-2-1.6 0.1-0.1 0.2-0.3 0.3-0.4 0.3-0.5 0.6-1 0.9-1.6 0.5-1.2 0.7-2.5 0.4-3.7-0.4-2-2.3-3-3.8-3.8-0.5-0.2-0.9-0.5-1.4-0.8-0.4-0.2-0.7-0.5-1-0.8 0-0.3 0.3-0.9 1.5-2.4 3-3.8 5.5-8 7.6-12.4 0.4-0.7 0.6-1.5 0.6-2.3-0.2-1.7-1.1-3.2-2.4-4.2-0.7-0.6-1.3-1.2-1.4-1.7 0-0.4 0.1-0.8 0.3-1.1 0.3-0.7 0.6-1.4 0.9-2.1 0.7-1.4 1.2-2.9 1.6-4.4l0.2-0.7c0.4-1.7 0.8-3.3 1.4-4.9 1.3-3.6 3.3-6.9 6-9.8 3.2-3.4 8.2-5.8 14.9-7.1 5.2-1.1 10.4-1.9 15.6-2.3 2.6-0.1 5.3 0 7.8 0.4 0.9 0.1 1.7-0.5 1.9-1.4s-0.4-1.7-1.3-1.9c-2.8-0.5-5.7-0.6-8.6-0.5-5.4 0.4-10.8 1.1-16.1 2.3-7.5 1.5-13 4.1-16.7 8.1-2.9 3.1-5.2 6.9-6.7 10.9-0.6 1.7-1.1 3.5-1.5 5.3l-0.2 0.7c-0.4 1.3-0.8 2.6-1.4 3.8-0.3 0.8-0.7 1.5-1 2.3-0.4 0.9-0.5 1.8-0.4 2.8 0.3 1.5 1.2 2.8 2.4 3.7 0.8 0.7 1.4 1.3 1.4 1.7-0.1 0.3-0.2 0.5-0.3 0.7-2 4.2-4.4 8.2-7.3 11.9-1.2 1.5-2.5 3.2-2.2 4.9 0.4 1.3 1.2 2.5 2.4 3.1z"/><path d="m19.6 30.7 0.2-0.7c0.3-1.4 0.7-2.8 1.1-4.1 1-2.8 2.6-5.3 4.6-7.5 2.2-2 4.8-3.5 7.7-4.2 0.6-0.2 1-0.6 1.2-1.2s0-1.2-0.5-1.6-1.1-0.5-1.6-0.4c-3.4 0.9-6.6 2.7-9.1 5.1-2.3 2.5-4.1 5.4-5.3 8.6-0.5 1.5-0.9 3-1.2 4.5l-0.2 0.7c-0.2 0.9 0.3 1.8 1.2 2 0.1 0 0.3 0 0.4 0 0.8 0 1.4-0.5 1.6-1.3z"/><circle cx="16" cy="36" r="1.7"/><path d="m46 34.7c-0.1 5.7 1.9 11.2 5.6 15.5 1.2 1.2 2.5 2.3 3.8 3.3 2.4 1.9 4.7 3.7 5.4 6.2-1.9 0.8-3.2 2.6-3.2 4.6v3.3c0 2.1 1.3 4 3.3 4.7v0.3c0 3.7 3 6.7 6.7 6.7 3.7 0 6.7-3 6.7-6.7v-0.3c2-0.7 3.3-2.6 3.3-4.7v-3.3c0-2-1.3-3.9-3.2-4.6 0.6-2.5 2.9-4.3 5.4-6.2 1.4-1 2.7-2.1 3.8-3.3 3.7-4.3 5.7-9.8 5.6-15.5 0-12-9.7-21.8-21.7-22-12 0.2-21.6 10-21.7 22zm16.7 3h-1.7c-0.9 0-1.7-0.7-1.7-1.7s0.7-1.7 1.7-1.7 1.7 0.7 1.7 1.7v1.7zm6.7 21.7h-3.3v-18.3h3.3v18.3zm-1.7 16.7c-1.8 0-3.3-1.5-3.3-3.3h6.7c0 1.8-1.5 3.3-3.3 3.3zm6.7-8.3c0 0.9-0.7 1.7-1.7 1.7h-10c-0.9 0-1.7-0.7-1.7-1.7v-3.3c0-0.9 0.7-1.7 1.7-1.7h10c0.9 0 1.7 0.7 1.7 1.7v3.3zm11.7-32.9c0.1 4.8-1.6 9.5-4.8 13.2-1 1.1-2.2 2.1-3.4 2.9-2 1.4-3.7 3-5.2 4.9v-14.8h1.7c2.8 0 5-2.2 5-5s-2.2-5-5-5-5 2.2-5 5v1.7h-3.3v-1.7c0-2.8-2.2-5-5-5s-5 2.2-5 5 2.2 5 5 5h1.7v14.8c-1.5-1.9-3.2-3.6-5.2-4.9-1.2-0.9-2.4-1.9-3.4-2.9-3.2-3.7-4.9-8.4-4.8-13.2 0.2-10.2 8.6-18.7 18.3-18.7s18.2 8.6 18.3 18.7zm-13.3 2.9v-1.7c0-0.9 0.7-1.7 1.7-1.7s1.7 0.7 1.7 1.7-0.7 1.7-1.7 1.7h-1.7z"/><path d="m94.3 36h5c0.9 0 1.7-0.7 1.7-1.7 0-0.9-0.7-1.7-1.7-1.7h-5c-0.9 0-1.7 0.7-1.7 1.7 0 0.9 0.7 1.7 1.7 1.7z"/><path d="m86.5 17.2c0.4 0 0.9-0.2 1.2-0.5l3.5-3.5c0.4-0.4 0.6-1 0.5-1.6s-0.6-1-1.2-1.2c-0.6-0.2-1.2 0-1.6 0.5l-3.5 3.5c-0.5 0.5-0.6 1.2-0.4 1.8s0.9 1 1.5 1z"/><path d="m67.7 9.3c0.9 0 1.7-0.7 1.7-1.7v-5c0-0.9-0.7-1.7-1.7-1.7-0.9 0-1.7 0.7-1.7 1.7v5c0 0.9 0.7 1.7 1.7 1.7z"/><path d="m50 16.7c0.3-0.3 0.5-0.7 0.5-1.2s-0.2-0.9-0.5-1.2l-3.5-3.5c-0.4-0.4-1-0.6-1.6-0.5s-1 0.6-1.2 1.2c-0.2 0.6 0 1.2 0.5 1.6l3.5 3.5c0.3 0.3 0.7 0.5 1.2 0.5s0.9-0.2 1.2-0.5z"/><path d="m36 32.7c-0.9 0-1.7 0.7-1.7 1.7 0 0.9 0.7 1.7 1.7 1.7h5c0.9 0 1.7-0.7 1.7-1.7 0-0.9-0.7-1.7-1.7-1.7h-5z"/></g></svg>