<svg width="420" height="460" viewBox="0 0 420 460" fill="#fff" xmlns="http://www.w3.org/2000/svg">
<path fill-rule="evenodd" clip-rule="evenodd" d="M370.598 459.332H222.374C205.051 459.332 189.051 450.116 180.368 435.14C171.686 420.185 171.622 401.71 180.219 386.692L254.331 256.985C262.971 241.86 279.056 232.537 296.486 232.537C313.894 232.537 329.979 241.86 338.64 256.985L412.752 386.692C421.328 401.71 421.264 420.185 412.582 435.14C403.899 450.116 387.899 459.332 370.598 459.332ZM370.598 427.332C376.486 427.332 381.947 424.196 384.912 419.097C387.878 413.977 387.899 407.684 384.955 402.564L310.843 272.857C307.899 267.716 302.416 264.537 296.486 264.537C290.534 264.537 285.051 267.716 282.107 272.857L207.995 402.564C205.072 407.684 205.094 413.977 208.038 419.097C211.003 424.196 216.464 427.332 222.374 427.332H370.598Z" fill="#fff"/>
<path fill-rule="evenodd" clip-rule="evenodd" d="M280.485 317.871C280.485 309.039 287.653 301.871 296.485 301.871C305.317 301.871 312.485 309.039 312.485 317.871V360.538C312.485 369.348 305.317 376.538 296.485 376.538C287.653 376.538 280.485 369.348 280.485 360.538V317.871Z" fill="#fff"/>
<path d="M296.485 413.871C305.322 413.871 312.485 406.708 312.485 397.871C312.485 389.035 305.322 381.871 296.485 381.871C287.649 381.871 280.485 389.035 280.485 397.871C280.485 406.708 287.649 413.871 296.485 413.871Z" fill="#fff"/>
<path fill-rule="evenodd" clip-rule="evenodd" d="M378.768 208.666C378.768 217.498 371.6 224.666 362.768 224.666C353.936 224.666 346.768 217.498 346.768 208.666V140.997C346.768 133.935 343.952 127.151 338.96 122.159L257.275 40.474C252.283 35.482 245.499 32.666 238.437 32.666H59.5148C52.4535 32.666 45.6695 35.482 40.6561 40.474C35.6641 45.4873 32.8481 52.25 32.8481 59.3327V400.666C32.8481 407.749 35.6641 414.511 40.6561 419.525C45.6695 424.517 52.4535 427.333 59.5148 427.333H136.485C145.317 427.333 152.485 434.501 152.485 443.333C152.485 452.165 145.317 459.333 136.485 459.333H59.5148C43.9628 459.333 29.0508 453.146 18.0428 442.159C7.03481 431.151 0.848145 416.218 0.848145 400.666V59.3327C0.848145 43.7807 7.03481 28.8474 18.0428 17.8394C29.0508 6.85268 43.9628 0.666016 59.5148 0.666016H238.437C253.989 0.666016 268.901 6.85268 279.909 17.8394L361.595 99.5247C372.581 110.533 378.768 125.445 378.768 140.997V208.666Z" fill="#fff"/>
<path fill-rule="evenodd" clip-rule="evenodd" d="M240.102 27.332C240.102 18.5 247.27 11.332 256.102 11.332C264.934 11.332 272.102 18.5 272.102 27.332V101.999C272.102 104.943 274.491 107.332 277.435 107.332H352.102C360.934 107.332 368.102 114.5 368.102 123.332C368.102 132.164 360.934 139.332 352.102 139.332H277.435C256.806 139.332 240.102 122.628 240.102 101.999V27.332Z" fill="#fff"/>
<path fill-rule="evenodd" clip-rule="evenodd" d="M91.5146 139.332C82.6826 139.332 75.5146 132.164 75.5146 123.332C75.5146 114.5 82.6826 107.332 91.5146 107.332H155.515C164.347 107.332 171.515 114.5 171.515 123.332C171.515 132.164 164.347 139.332 155.515 139.332H91.5146Z" fill="#fff"/>
<path fill-rule="evenodd" clip-rule="evenodd" d="M91.5146 267.332C82.6826 267.332 75.5146 260.164 75.5146 251.332C75.5146 242.5 82.6826 235.332 91.5146 235.332H155.515C164.347 235.332 171.515 242.5 171.515 251.332C171.515 260.164 164.347 267.332 155.515 267.332H91.5146Z" fill="#fff"/>
<path fill-rule="evenodd" clip-rule="evenodd" d="M91.5146 203.332C82.6826 203.332 75.5146 196.164 75.5146 187.332C75.5146 178.5 82.6826 171.332 91.5146 171.332H219.515C228.347 171.332 235.515 178.5 235.515 187.332C235.515 196.164 228.347 203.332 219.515 203.332H91.5146Z" fill="#fff"/>
</svg>
