<?xml version="1.0" encoding="UTF-8"?>
<svg xmlns="http://www.w3.org/2000/svg" xmlns:xlink="http://www.w3.org/1999/xlink" version="1.1" id="Capa_1" x="0px" y="0px" viewBox="0 0 512 512" style="enable-background:new 0 0 512 512;" xml:space="preserve" width="512" height="512" fill="#fff">
<g>
	<path style="fill:none;stroke:#fff;stroke-width:40;stroke-linecap:round;stroke-linejoin:round;stroke-miterlimit:10;" d="&#10;&#9;&#9;M20,256h76c0-22.091,17.909-40,40-40s40,17.909,40,40h160c0,22.091,17.908,40,40,40s40-17.909,40-40h76l0-80h0&#10;&#9;&#9;c-22.091,0-40-17.909-40-40s17.909-40,40-40V20h-76c0,22.091-17.909,40-40,40s-40-17.909-40-40H176c0,22.091-17.908,40-40,40&#10;&#9;&#9;S96,42.091,96,20H20v76c22.091,0,40,17.909,40,40s-17.909,40-40,40v160c22.091,0,40,17.908,40,40s-17.909,40-40,40v76h76&#10;&#9;&#9;c0-22.091,17.909-40,40-40s40,17.909,40,40h80l0-76c22.091,0,40-17.909,40-40s-17.909-40-40-40V176c-22.091,0-40-17.908-40-40&#10;&#9;&#9;s17.909-40,40-40V20"/>
</g>















</svg>
