<svg xmlns="http://www.w3.org/2000/svg" viewBox="0 0 70 70" width="60" height="60"><style type="text/css">  
	.st0{fill:#FA8503;}
	.st1{fill:#156BA3;}
</style><path class="st0" d="M23.6 4.7h-9.8c-0.7 0-1.2 0.5-1.2 1.2s0.5 1.2 1.2 1.2l0 0h9.8c0.7 0 1.2-0.5 1.2-1.2S24.2 4.7 23.6 4.7L23.6 4.7z"/><path class="st0" d="M36 29.1c0.4-0.2 0.8-0.4 1.3-0.5l0.1 0V6c0-3.3-2.7-6-6-6H6C2.7 0 0.1 2.7 0.1 5.9c0 0 0 0.1 0 0.1v9.8c0 0.7 0.5 1.2 1.2 1.2 0.7 0 1.2-0.5 1.2-1.2v-3.9H35v17.8C35.3 29.5 35.6 29.3 36 29.1zM2.5 9.5V6c0-2 1.6-3.6 3.6-3.6h25.3c2 0 3.6 1.6 3.6 3.6v3.6H2.5z"/><path class="st0" d="M0.5 20.4c-0.4 0.3-0.6 0.9-0.4 1.4 0.2 0.5 0.7 0.8 1.2 0.8 0.5 0 1-0.3 1.1-0.9 0.1-0.5 0-1-0.4-1.3C1.5 20.2 1 20.2 0.5 20.4z"/><path class="st0" d="M1.3 25.8c-0.6 0-1.2 0.5-1.2 1.2v31.7c0 3.3 2.7 6 6 6H22c-0.1-0.8-0.2-1.6-0.1-2.4H6c-2 0-3.5-1.6-3.5-3.6v-9.2h19.3l-2.3-2.1h-17V27C2.5 26.4 1.9 25.8 1.3 25.8z"/><path class="st0" d="M18.7 51.4c-2.5 0-4.4 2-4.4 4.4s2 4.4 4.4 4.4 4.4-2 4.4-4.4l0 0C23.1 53.4 21.1 51.4 18.7 51.4zM18.7 58.2c-1.3 0-2.3-1-2.3-2.3s1-2.3 2.3-2.3c1.3 0 2.3 1 2.3 2.3l0 0C21 57.1 20 58.2 18.7 58.2z"/><path class="st1" d="M54 22.6c0-0.7-0.5-1.2-1.2-1.2H41v2.4h11.8C53.5 23.8 54 23.3 54 22.6z"/><path class="st1" d="M25.3 65.3c0.4 2.6 2.6 4.6 5.3 4.7h21.9c4.6 0 9-1.8 12.3-5 3.2-3.3 5-7.7 5-12.3 0-4.6-1.8-9-5.1-12.2L53.5 29.3c-1.1-1.1-2.6-1.7-4.1-1.7h-0.1c-1.3 0-2.6 0.5-3.5 1.5 -0.7 0.7-1.1 1.5-1.3 2.5l-0.1 0.2 -0.2-0.1c-0.8-0.5-1.7-0.7-2.6-0.7 -0.4 0-0.8 0-1.2 0.1 -0.1 0.1-0.2 0.1-0.3 0.1 -0.4 0.1-0.8 0.3-1.2 0.5 -0.4 0.2-0.9 0.5-1.2 0.9 -0.6 0.7-1.1 1.5-1.2 2.4l0 0.3L36.2 35c-2.1-1.3-4.8-1-6.5 0.7 -0.6 0.7-1.1 1.5-1.3 2.3l-0.1 0.3 -5-5c-1.9-2-5-2.3-7.2-0.6l-0.4 0.4c-1 1-1.5 2.3-1.5 3.7 0 1.5 0.7 2.9 1.8 4l6.6 6.6 2.6 2.6 8.4 8.4h-2.9c-0.6 0-1.2 0-1.7 0.2 -0.9 0.3-1.7 0.7-2.4 1.4 -0.8 0.7-1.3 1.7-1.5 2.7C25.1 63.6 25.1 64.4 25.3 65.3L25.3 65.3zM28.3 61.8c0.5-0.7 1.3-1 2.2-1H36l2.2 2.2c0.5 0.4 1.2 0.4 1.8 0 0.4-0.5 0.4-1.3 0-1.8L17.6 38.9c-0.8-0.8-1.2-2-1-3.1 0.1-0.6 0.5-1.1 1-1.4 0.5-0.4 1.2-0.6 1.9-0.5 0.8 0.1 1.5 0.4 2 0.9L37 50.2c0.5 0.4 1.2 0.4 1.8 0 0.4-0.5 0.4-1.3 0-1.8l-7-7c-0.6-0.6-1-1.5-1-2.3 0-1.4 1.1-2.6 2.5-2.6 0.1 0 0.2 0 0.3 0 0.8 0.1 1.6 0.4 2.2 1l7 7c0.2 0.2 0.5 0.3 0.9 0.3 0.3 0 0.6-0.1 0.9-0.3 0.4-0.5 0.4-1.3 0-1.8l-4.6-4.6c-0.2-0.2-0.4-0.5-0.5-0.8 -0.5-0.4-0.7-0.9-0.7-1.5 0-0.7 0.3-1.4 0.8-1.8l0.1-0.1c0.5-0.4 1.2-0.6 1.8-0.6 0.8 0.1 1.6 0.4 2.3 0.9l4.6 4.6c0.2 0.2 0.5 0.3 0.9 0.3 0.3 0 0.6-0.1 0.9-0.3 0.4-0.5 0.4-1.3 0-1.8L47.9 35c-0.6-0.5-1-1.3-1-2.2 0-0.7 0.2-1.4 0.7-2 0.6-0.5 1.3-0.8 2.1-0.8 0.8 0.1 1.6 0.4 2.2 1L63 42.3c2.8 2.7 4.4 6.5 4.4 10.4 0 8.3-6.6 15-14.9 15 0 0 0 0-0.1 0H30.6c-1.5 0-2.8-1.2-3-2.7v-1.2C27.6 63 27.8 62.4 28.3 61.8z"/><path class="st1" d="M13.6 29.4c-0.2-0.2-0.5-0.3-0.8-0.3 -0.3 0-0.7 0.1-0.9 0.3 -1.9 1.9-3 4.4-3 7.1 0 2.7 1.1 5.2 3 7.1 0.2 0.2 0.6 0.3 0.9 0.3 0.3 0 0.6-0.1 0.9-0.3 0.4-0.5 0.4-1.3 0-1.8 -2.9-3-2.9-7.7 0-10.7C14.1 30.7 14.1 29.9 13.6 29.4z"/><path class="st1" d="M57 15.6H45.5c-0.7 0-1.2 0.5-1.2 1.2 0 0.7 0.5 1.2 1.2 1.2H57c0.7 0 1.2-0.5 1.2-1.2C58.2 16.1 57.7 15.6 57 15.6z"/><path class="st1" d="M62.8 15.9c-0.4-0.3-0.9-0.3-1.3 0L61.4 16c-0.2 0.1-0.4 0.3-0.5 0.5 -0.1 0.3-0.1 0.6 0 0.9 0.2 0.5 0.7 0.8 1.2 0.8 0.5 0 0.8-0.3 1.1-0.9C63.4 16.8 63.2 16.2 62.8 15.9z"/></svg>